%
M48
M72
T01C0.01378
T02C0.03000
T03C0.03200
T04C0.04000
T05C0.10827
T06C0.11811
%
T01
X80305Y59557
X120305Y69557
T02
X106388Y89045
X100600Y89045
X94419Y89045
X88356Y89045
T03
X65305Y54557
X65305Y34557
X40305Y34557
X40305Y24557
X40305Y44557
X95305Y44557
X95305Y34557
X95305Y24557
X120305Y34557
X120305Y54557
X145305Y44557
X145305Y34557
X145305Y24557
X170305Y34557
X170305Y54557
X110305Y161565
X90305Y161565
T04
X71683Y147510
X71683Y137510
X71683Y127510
X62156Y104400
X52156Y104400
X44163Y127116
X44163Y137116
X44163Y147116
X160305Y102431
X160305Y92431
X160305Y82431
X205305Y79557
X205305Y69557
X205305Y59557
X205305Y49557
X205305Y39557
X205305Y29557
X215305Y29557
X215305Y39557
X215305Y49557
X215305Y59557
X215305Y69557
X215305Y79557
X215305Y89557
X205305Y89557
X205305Y99557
X205305Y109557
X205305Y119557
X205305Y129557
X205305Y139557
X205305Y149557
X205305Y159557
X205305Y169557
X205305Y179557
X205305Y189557
X205305Y199557
X205305Y209557
X205305Y219557
X215305Y219557
X215305Y209557
X215305Y199557
X215305Y189557
X215305Y179557
X215305Y169557
X215305Y159557
X215305Y149557
X215305Y139557
X215305Y129557
X215305Y119557
X215305Y109557
X215305Y99557
T05
X16998Y10699
X209911Y10699
X209911Y239439
X16998Y239439
X16998Y239439
T06
X141368Y215069
X159872Y226486
X159872Y203258
M30
