G75*
%MOIN*%
%OFA0B0*%
%FSLAX25Y25*%
%IPPOS*%
%LPD*%
%AMOC8*
5,1,8,0,0,1.08239X$1,22.5*
%
%ADD10C,0.05200*%
%ADD11OC8,0.05200*%
%ADD12C,0.06000*%
%ADD13C,0.18898*%
%ADD14C,0.07400*%
%ADD15C,0.05000*%
%ADD16C,0.00600*%
%ADD17C,0.02978*%
%ADD18C,0.03200*%
D10*
X0037705Y0024557D02*
X0042905Y0024557D01*
X0042905Y0034557D02*
X0037705Y0034557D01*
X0037705Y0044557D02*
X0042905Y0044557D01*
X0092705Y0044557D02*
X0097905Y0044557D01*
X0097905Y0034557D02*
X0092705Y0034557D01*
X0092705Y0024557D02*
X0097905Y0024557D01*
X0142705Y0024557D02*
X0147905Y0024557D01*
X0147905Y0034557D02*
X0142705Y0034557D01*
X0142705Y0044557D02*
X0147905Y0044557D01*
D11*
X0170305Y0034557D03*
X0170305Y0054557D03*
X0120305Y0054557D03*
X0120305Y0034557D03*
X0065305Y0034557D03*
X0065305Y0054557D03*
X0090305Y0161565D03*
X0110305Y0161565D03*
D12*
X0074683Y0147510D02*
X0068683Y0147510D01*
X0068683Y0137510D02*
X0074683Y0137510D01*
X0074683Y0127510D02*
X0068683Y0127510D01*
X0062156Y0107400D02*
X0062156Y0101400D01*
X0052156Y0101400D02*
X0052156Y0107400D01*
X0047163Y0127116D02*
X0041163Y0127116D01*
X0041163Y0137116D02*
X0047163Y0137116D01*
X0047163Y0147116D02*
X0041163Y0147116D01*
X0157305Y0102431D02*
X0163305Y0102431D01*
X0163305Y0092431D02*
X0157305Y0092431D01*
X0157305Y0082431D02*
X0163305Y0082431D01*
D13*
X0159872Y0203258D03*
X0141368Y0215069D03*
X0159872Y0226486D03*
D14*
X0205305Y0219557D03*
X0205305Y0209557D03*
X0205305Y0199557D03*
X0205305Y0189557D03*
X0205305Y0179557D03*
X0205305Y0169557D03*
X0205305Y0159557D03*
X0205305Y0149557D03*
X0205305Y0139557D03*
X0205305Y0129557D03*
X0205305Y0119557D03*
X0205305Y0109557D03*
X0205305Y0099557D03*
X0205305Y0089557D03*
X0205305Y0079557D03*
X0205305Y0069557D03*
X0205305Y0059557D03*
X0205305Y0049557D03*
X0205305Y0039557D03*
X0205305Y0029557D03*
X0215305Y0029557D03*
X0215305Y0039557D03*
X0215305Y0049557D03*
X0215305Y0059557D03*
X0215305Y0069557D03*
X0215305Y0079557D03*
X0215305Y0089557D03*
X0215305Y0099557D03*
X0215305Y0109557D03*
X0215305Y0119557D03*
X0215305Y0129557D03*
X0215305Y0139557D03*
X0215305Y0149557D03*
X0215305Y0159557D03*
X0215305Y0169557D03*
X0215305Y0179557D03*
X0215305Y0189557D03*
X0215305Y0199557D03*
X0215305Y0209557D03*
X0215305Y0219557D03*
D15*
X0106388Y0091545D02*
X0106388Y0086545D01*
X0100600Y0086545D02*
X0100600Y0091545D01*
X0094419Y0091545D02*
X0094419Y0086545D01*
X0088356Y0086545D02*
X0088356Y0091545D01*
D16*
X0005807Y0005800D02*
X0006187Y0254188D01*
X0233701Y0254566D01*
X0233321Y0005800D01*
X0218396Y0005800D01*
X0219625Y0008767D01*
X0219625Y0012631D01*
X0218146Y0016201D01*
X0215414Y0018933D01*
X0211844Y0020412D01*
X0207979Y0020412D01*
X0204409Y0018933D01*
X0201677Y0016201D01*
X0200198Y0012631D01*
X0200198Y0008767D01*
X0201427Y0005800D01*
X0025483Y0005800D01*
X0026711Y0008767D01*
X0026711Y0012631D01*
X0025233Y0016201D01*
X0022500Y0018933D01*
X0018930Y0020412D01*
X0015066Y0020412D01*
X0011496Y0018933D01*
X0008763Y0016201D01*
X0007285Y0012631D01*
X0007285Y0008767D01*
X0008514Y0005800D01*
X0005807Y0005800D01*
X0005808Y0006172D02*
X0008359Y0006172D01*
X0008112Y0006770D02*
X0005808Y0006770D01*
X0005809Y0007369D02*
X0007864Y0007369D01*
X0007616Y0007967D02*
X0005810Y0007967D01*
X0005811Y0008566D02*
X0007368Y0008566D01*
X0007285Y0009164D02*
X0005812Y0009164D01*
X0005813Y0009763D02*
X0007285Y0009763D01*
X0007285Y0010361D02*
X0005814Y0010361D01*
X0005815Y0010960D02*
X0007285Y0010960D01*
X0007285Y0011558D02*
X0005816Y0011558D01*
X0005817Y0012157D02*
X0007285Y0012157D01*
X0007336Y0012755D02*
X0005818Y0012755D01*
X0005818Y0013354D02*
X0007584Y0013354D01*
X0007832Y0013952D02*
X0005819Y0013952D01*
X0005820Y0014551D02*
X0008080Y0014551D01*
X0008328Y0015150D02*
X0005821Y0015150D01*
X0005822Y0015748D02*
X0008576Y0015748D01*
X0008909Y0016347D02*
X0005823Y0016347D01*
X0005824Y0016945D02*
X0009507Y0016945D01*
X0010106Y0017544D02*
X0005825Y0017544D01*
X0005826Y0018142D02*
X0010704Y0018142D01*
X0011303Y0018741D02*
X0005827Y0018741D01*
X0005828Y0019339D02*
X0012475Y0019339D01*
X0013920Y0019938D02*
X0005829Y0019938D01*
X0005829Y0020536D02*
X0233344Y0020536D01*
X0233343Y0019938D02*
X0212989Y0019938D01*
X0214434Y0019339D02*
X0233342Y0019339D01*
X0233341Y0018741D02*
X0215606Y0018741D01*
X0216205Y0018142D02*
X0233340Y0018142D01*
X0233339Y0017544D02*
X0216803Y0017544D01*
X0217402Y0016945D02*
X0233338Y0016945D01*
X0233337Y0016347D02*
X0218000Y0016347D01*
X0218334Y0015748D02*
X0233336Y0015748D01*
X0233335Y0015150D02*
X0218582Y0015150D01*
X0218829Y0014551D02*
X0233334Y0014551D01*
X0233334Y0013952D02*
X0219077Y0013952D01*
X0219325Y0013354D02*
X0233333Y0013354D01*
X0233332Y0012755D02*
X0219573Y0012755D01*
X0219625Y0012157D02*
X0233331Y0012157D01*
X0233330Y0011558D02*
X0219625Y0011558D01*
X0219625Y0010960D02*
X0233329Y0010960D01*
X0233328Y0010361D02*
X0219625Y0010361D01*
X0219625Y0009763D02*
X0233327Y0009763D01*
X0233326Y0009164D02*
X0219625Y0009164D01*
X0219542Y0008566D02*
X0233325Y0008566D01*
X0233324Y0007967D02*
X0219294Y0007967D01*
X0219046Y0007369D02*
X0233324Y0007369D01*
X0233323Y0006770D02*
X0218798Y0006770D01*
X0218550Y0006172D02*
X0233322Y0006172D01*
X0233345Y0021135D02*
X0149803Y0021135D01*
X0149752Y0021101D02*
X0150391Y0021528D01*
X0150934Y0022071D01*
X0151361Y0022710D01*
X0151655Y0023419D01*
X0151805Y0024173D01*
X0151805Y0024257D01*
X0145605Y0024257D01*
X0145605Y0020657D01*
X0148289Y0020657D01*
X0149043Y0020807D01*
X0149752Y0021101D01*
X0150597Y0021733D02*
X0233345Y0021733D01*
X0233346Y0022332D02*
X0151109Y0022332D01*
X0151453Y0022930D02*
X0233347Y0022930D01*
X0233348Y0023529D02*
X0151677Y0023529D01*
X0151796Y0024127D02*
X0233349Y0024127D01*
X0233350Y0024726D02*
X0145605Y0024726D01*
X0145605Y0024857D02*
X0151805Y0024857D01*
X0151805Y0024941D01*
X0151655Y0025695D01*
X0151361Y0026404D01*
X0150934Y0027043D01*
X0150391Y0027586D01*
X0149752Y0028013D01*
X0149043Y0028307D01*
X0148289Y0028457D01*
X0145605Y0028457D01*
X0145605Y0024857D01*
X0145005Y0024857D01*
X0145005Y0024257D01*
X0138805Y0024257D01*
X0138805Y0024173D01*
X0138955Y0023419D01*
X0139249Y0022710D01*
X0139676Y0022071D01*
X0140219Y0021528D01*
X0140858Y0021101D01*
X0141568Y0020807D01*
X0142321Y0020657D01*
X0145005Y0020657D01*
X0145005Y0024257D01*
X0145605Y0024257D01*
X0145605Y0024857D01*
X0145605Y0025324D02*
X0145005Y0025324D01*
X0145005Y0024857D02*
X0145005Y0028457D01*
X0142321Y0028457D01*
X0141568Y0028307D01*
X0140858Y0028013D01*
X0140219Y0027586D01*
X0139676Y0027043D01*
X0139249Y0026404D01*
X0138955Y0025695D01*
X0138805Y0024941D01*
X0138805Y0024857D01*
X0145005Y0024857D01*
X0145005Y0024726D02*
X0095605Y0024726D01*
X0095605Y0024857D02*
X0101805Y0024857D01*
X0101805Y0024941D01*
X0101655Y0025695D01*
X0101361Y0026404D01*
X0100934Y0027043D01*
X0100391Y0027586D01*
X0099752Y0028013D01*
X0099043Y0028307D01*
X0098289Y0028457D01*
X0095605Y0028457D01*
X0095605Y0024857D01*
X0095005Y0024857D01*
X0095005Y0024257D01*
X0088805Y0024257D01*
X0088805Y0024173D01*
X0088955Y0023419D01*
X0089249Y0022710D01*
X0089676Y0022071D01*
X0090219Y0021528D01*
X0090858Y0021101D01*
X0091568Y0020807D01*
X0092321Y0020657D01*
X0095005Y0020657D01*
X0095005Y0024257D01*
X0095605Y0024257D01*
X0095605Y0020657D01*
X0098289Y0020657D01*
X0099043Y0020807D01*
X0099752Y0021101D01*
X0100391Y0021528D01*
X0100934Y0022071D01*
X0101361Y0022710D01*
X0101655Y0023419D01*
X0101805Y0024173D01*
X0101805Y0024257D01*
X0095605Y0024257D01*
X0095605Y0024857D01*
X0095605Y0025324D02*
X0095005Y0025324D01*
X0095005Y0024857D02*
X0095005Y0028457D01*
X0092321Y0028457D01*
X0091568Y0028307D01*
X0090858Y0028013D01*
X0090219Y0027586D01*
X0089676Y0027043D01*
X0089249Y0026404D01*
X0088955Y0025695D01*
X0088805Y0024941D01*
X0088805Y0024857D01*
X0095005Y0024857D01*
X0095005Y0024726D02*
X0040605Y0024726D01*
X0040605Y0024857D02*
X0046805Y0024857D01*
X0046805Y0024941D01*
X0046655Y0025695D01*
X0046361Y0026404D01*
X0045934Y0027043D01*
X0045391Y0027586D01*
X0044752Y0028013D01*
X0044043Y0028307D01*
X0043289Y0028457D01*
X0040605Y0028457D01*
X0040605Y0024857D01*
X0040005Y0024857D01*
X0040005Y0024257D01*
X0033805Y0024257D01*
X0033805Y0024173D01*
X0033955Y0023419D01*
X0034249Y0022710D01*
X0034676Y0022071D01*
X0035219Y0021528D01*
X0035858Y0021101D01*
X0036568Y0020807D01*
X0037321Y0020657D01*
X0040005Y0020657D01*
X0040005Y0024257D01*
X0040605Y0024257D01*
X0040605Y0020657D01*
X0043289Y0020657D01*
X0044043Y0020807D01*
X0044752Y0021101D01*
X0045391Y0021528D01*
X0045934Y0022071D01*
X0046361Y0022710D01*
X0046655Y0023419D01*
X0046805Y0024173D01*
X0046805Y0024257D01*
X0040605Y0024257D01*
X0040605Y0024857D01*
X0040605Y0025324D02*
X0040005Y0025324D01*
X0040005Y0024857D02*
X0040005Y0028457D01*
X0037321Y0028457D01*
X0036568Y0028307D01*
X0035858Y0028013D01*
X0035219Y0027586D01*
X0034676Y0027043D01*
X0034249Y0026404D01*
X0033955Y0025695D01*
X0033805Y0024941D01*
X0033805Y0024857D01*
X0040005Y0024857D01*
X0040005Y0024726D02*
X0005836Y0024726D01*
X0005837Y0025324D02*
X0033881Y0025324D01*
X0034049Y0025923D02*
X0005838Y0025923D01*
X0005839Y0026521D02*
X0034327Y0026521D01*
X0034752Y0027120D02*
X0005840Y0027120D01*
X0005840Y0027718D02*
X0035416Y0027718D01*
X0036616Y0028317D02*
X0005841Y0028317D01*
X0005842Y0028915D02*
X0200705Y0028915D01*
X0200705Y0028642D02*
X0201405Y0026951D01*
X0202699Y0025657D01*
X0204390Y0024957D01*
X0206220Y0024957D01*
X0207911Y0025657D01*
X0209205Y0026951D01*
X0209905Y0028642D01*
X0209905Y0030472D01*
X0209205Y0032163D01*
X0207911Y0033457D01*
X0206220Y0034157D01*
X0204390Y0034157D01*
X0202699Y0033457D01*
X0201405Y0032163D01*
X0200705Y0030472D01*
X0200705Y0028642D01*
X0200840Y0028317D02*
X0148995Y0028317D01*
X0150194Y0027718D02*
X0201088Y0027718D01*
X0201336Y0027120D02*
X0150858Y0027120D01*
X0151283Y0026521D02*
X0201836Y0026521D01*
X0202434Y0025923D02*
X0151561Y0025923D01*
X0151729Y0025324D02*
X0203504Y0025324D01*
X0207106Y0025324D02*
X0213504Y0025324D01*
X0212699Y0025657D02*
X0214390Y0024957D01*
X0216220Y0024957D01*
X0217911Y0025657D01*
X0219205Y0026951D01*
X0219905Y0028642D01*
X0219905Y0030472D01*
X0219205Y0032163D01*
X0217911Y0033457D01*
X0216220Y0034157D01*
X0214390Y0034157D01*
X0212699Y0033457D01*
X0211405Y0032163D01*
X0210705Y0030472D01*
X0210705Y0028642D01*
X0211405Y0026951D01*
X0212699Y0025657D01*
X0212434Y0025923D02*
X0208176Y0025923D01*
X0208775Y0026521D02*
X0211836Y0026521D01*
X0211336Y0027120D02*
X0209275Y0027120D01*
X0209522Y0027718D02*
X0211088Y0027718D01*
X0210840Y0028317D02*
X0209770Y0028317D01*
X0209905Y0028915D02*
X0210705Y0028915D01*
X0210705Y0029514D02*
X0209905Y0029514D01*
X0209905Y0030112D02*
X0210705Y0030112D01*
X0210804Y0030711D02*
X0209806Y0030711D01*
X0209558Y0031309D02*
X0211052Y0031309D01*
X0211300Y0031908D02*
X0209310Y0031908D01*
X0208861Y0032506D02*
X0211749Y0032506D01*
X0212348Y0033105D02*
X0208263Y0033105D01*
X0207315Y0033703D02*
X0213295Y0033703D01*
X0214390Y0034957D02*
X0212699Y0035657D01*
X0211405Y0036951D01*
X0210705Y0038642D01*
X0210705Y0040472D01*
X0211405Y0042163D01*
X0212699Y0043457D01*
X0214390Y0044157D01*
X0216220Y0044157D01*
X0217911Y0043457D01*
X0219205Y0042163D01*
X0219905Y0040472D01*
X0219905Y0038642D01*
X0219205Y0036951D01*
X0217911Y0035657D01*
X0216220Y0034957D01*
X0214390Y0034957D01*
X0213082Y0035499D02*
X0207528Y0035499D01*
X0207911Y0035657D02*
X0209205Y0036951D01*
X0209905Y0038642D01*
X0209905Y0040472D01*
X0209205Y0042163D01*
X0207911Y0043457D01*
X0206220Y0044157D01*
X0204390Y0044157D01*
X0202699Y0043457D01*
X0201405Y0042163D01*
X0200705Y0040472D01*
X0200705Y0038642D01*
X0201405Y0036951D01*
X0202699Y0035657D01*
X0204390Y0034957D01*
X0206220Y0034957D01*
X0207911Y0035657D01*
X0208351Y0036097D02*
X0212259Y0036097D01*
X0211661Y0036696D02*
X0208949Y0036696D01*
X0209347Y0037294D02*
X0211263Y0037294D01*
X0211015Y0037893D02*
X0209595Y0037893D01*
X0209843Y0038491D02*
X0210767Y0038491D01*
X0210705Y0039090D02*
X0209905Y0039090D01*
X0209905Y0039688D02*
X0210705Y0039688D01*
X0210705Y0040287D02*
X0209905Y0040287D01*
X0209734Y0040886D02*
X0210876Y0040886D01*
X0211124Y0041484D02*
X0209486Y0041484D01*
X0209238Y0042083D02*
X0211372Y0042083D01*
X0211924Y0042681D02*
X0208687Y0042681D01*
X0208088Y0043280D02*
X0212522Y0043280D01*
X0213717Y0043878D02*
X0206894Y0043878D01*
X0206505Y0045075D02*
X0214105Y0045075D01*
X0214390Y0044957D02*
X0216220Y0044957D01*
X0217911Y0045657D01*
X0219205Y0046951D01*
X0219905Y0048642D01*
X0219905Y0050472D01*
X0219205Y0052163D01*
X0217911Y0053457D01*
X0216220Y0054157D01*
X0214390Y0054157D01*
X0212699Y0053457D01*
X0211405Y0052163D01*
X0210705Y0050472D01*
X0210705Y0048642D01*
X0211405Y0046951D01*
X0212699Y0045657D01*
X0214390Y0044957D01*
X0212683Y0045674D02*
X0207927Y0045674D01*
X0207911Y0045657D02*
X0209205Y0046951D01*
X0209905Y0048642D01*
X0209905Y0050472D01*
X0209205Y0052163D01*
X0207911Y0053457D01*
X0206220Y0054157D01*
X0204390Y0054157D01*
X0202699Y0053457D01*
X0201405Y0052163D01*
X0200705Y0050472D01*
X0200705Y0048642D01*
X0201405Y0046951D01*
X0202699Y0045657D01*
X0204390Y0044957D01*
X0206220Y0044957D01*
X0207911Y0045657D01*
X0208526Y0046272D02*
X0212085Y0046272D01*
X0211486Y0046871D02*
X0209124Y0046871D01*
X0209419Y0047469D02*
X0211191Y0047469D01*
X0210943Y0048068D02*
X0209667Y0048068D01*
X0209905Y0048666D02*
X0210705Y0048666D01*
X0210705Y0049265D02*
X0209905Y0049265D01*
X0209905Y0049863D02*
X0210705Y0049863D01*
X0210705Y0050462D02*
X0209905Y0050462D01*
X0209662Y0051060D02*
X0210949Y0051060D01*
X0211197Y0051659D02*
X0209414Y0051659D01*
X0209110Y0052257D02*
X0211500Y0052257D01*
X0212098Y0052856D02*
X0208512Y0052856D01*
X0207913Y0053454D02*
X0212697Y0053454D01*
X0214138Y0054053D02*
X0206472Y0054053D01*
X0206220Y0054957D02*
X0204390Y0054957D01*
X0202699Y0055657D01*
X0201405Y0056951D01*
X0200705Y0058642D01*
X0200705Y0060472D01*
X0201405Y0062163D01*
X0202699Y0063457D01*
X0204390Y0064157D01*
X0206220Y0064157D01*
X0207911Y0063457D01*
X0209205Y0062163D01*
X0209905Y0060472D01*
X0209905Y0058642D01*
X0209205Y0056951D01*
X0207911Y0055657D01*
X0206220Y0054957D01*
X0206927Y0055250D02*
X0213683Y0055250D01*
X0214390Y0054957D02*
X0216220Y0054957D01*
X0217911Y0055657D01*
X0219205Y0056951D01*
X0219905Y0058642D01*
X0219905Y0060472D01*
X0219205Y0062163D01*
X0217911Y0063457D01*
X0216220Y0064157D01*
X0214390Y0064157D01*
X0212699Y0063457D01*
X0211405Y0062163D01*
X0210705Y0060472D01*
X0210705Y0058642D01*
X0211405Y0056951D01*
X0212699Y0055657D01*
X0214390Y0054957D01*
X0212509Y0055848D02*
X0208102Y0055848D01*
X0208700Y0056447D02*
X0211910Y0056447D01*
X0211367Y0057045D02*
X0209244Y0057045D01*
X0209492Y0057644D02*
X0211119Y0057644D01*
X0210871Y0058242D02*
X0209740Y0058242D01*
X0209905Y0058841D02*
X0210705Y0058841D01*
X0210705Y0059439D02*
X0209905Y0059439D01*
X0209905Y0060038D02*
X0210705Y0060038D01*
X0210773Y0060636D02*
X0209837Y0060636D01*
X0209589Y0061235D02*
X0211021Y0061235D01*
X0211269Y0061833D02*
X0209341Y0061833D01*
X0208936Y0062432D02*
X0211675Y0062432D01*
X0212273Y0063030D02*
X0208337Y0063030D01*
X0207495Y0063629D02*
X0213115Y0063629D01*
X0213262Y0065424D02*
X0207348Y0065424D01*
X0207911Y0065657D02*
X0209205Y0066951D01*
X0209905Y0068642D01*
X0209905Y0070472D01*
X0209205Y0072163D01*
X0207911Y0073457D01*
X0206220Y0074157D01*
X0204390Y0074157D01*
X0202699Y0073457D01*
X0201405Y0072163D01*
X0200705Y0070472D01*
X0200705Y0068642D01*
X0201405Y0066951D01*
X0202699Y0065657D01*
X0204390Y0064957D01*
X0206220Y0064957D01*
X0207911Y0065657D01*
X0208276Y0066023D02*
X0212334Y0066023D01*
X0212699Y0065657D02*
X0214390Y0064957D01*
X0216220Y0064957D01*
X0217911Y0065657D01*
X0219205Y0066951D01*
X0219905Y0068642D01*
X0219905Y0070472D01*
X0219205Y0072163D01*
X0217911Y0073457D01*
X0216220Y0074157D01*
X0214390Y0074157D01*
X0212699Y0073457D01*
X0211405Y0072163D01*
X0210705Y0070472D01*
X0210705Y0068642D01*
X0211405Y0066951D01*
X0212699Y0065657D01*
X0211735Y0066621D02*
X0208875Y0066621D01*
X0209316Y0067220D02*
X0211294Y0067220D01*
X0211046Y0067819D02*
X0209564Y0067819D01*
X0209812Y0068417D02*
X0210798Y0068417D01*
X0210705Y0069016D02*
X0209905Y0069016D01*
X0209905Y0069614D02*
X0210705Y0069614D01*
X0210705Y0070213D02*
X0209905Y0070213D01*
X0209765Y0070811D02*
X0210846Y0070811D01*
X0211093Y0071410D02*
X0209517Y0071410D01*
X0209269Y0072008D02*
X0211341Y0072008D01*
X0211849Y0072607D02*
X0208761Y0072607D01*
X0208162Y0073205D02*
X0212448Y0073205D01*
X0213537Y0073804D02*
X0207073Y0073804D01*
X0206325Y0075001D02*
X0214285Y0075001D01*
X0214390Y0074957D02*
X0216220Y0074957D01*
X0217911Y0075657D01*
X0219205Y0076951D01*
X0219905Y0078642D01*
X0219905Y0080472D01*
X0219205Y0082163D01*
X0217911Y0083457D01*
X0216220Y0084157D01*
X0214390Y0084157D01*
X0212699Y0083457D01*
X0211405Y0082163D01*
X0210705Y0080472D01*
X0210705Y0078642D01*
X0211405Y0076951D01*
X0212699Y0075657D01*
X0214390Y0074957D01*
X0212840Y0075599D02*
X0207770Y0075599D01*
X0207911Y0075657D02*
X0209205Y0076951D01*
X0209905Y0078642D01*
X0209905Y0080472D01*
X0209205Y0082163D01*
X0207911Y0083457D01*
X0206220Y0084157D01*
X0204390Y0084157D01*
X0202699Y0083457D01*
X0201405Y0082163D01*
X0200705Y0080472D01*
X0200705Y0078642D01*
X0201405Y0076951D01*
X0202699Y0075657D01*
X0204390Y0074957D01*
X0206220Y0074957D01*
X0207911Y0075657D01*
X0208451Y0076198D02*
X0212159Y0076198D01*
X0211561Y0076796D02*
X0209050Y0076796D01*
X0209388Y0077395D02*
X0211222Y0077395D01*
X0210974Y0077993D02*
X0209636Y0077993D01*
X0209884Y0078592D02*
X0210726Y0078592D01*
X0210705Y0079190D02*
X0209905Y0079190D01*
X0209905Y0079789D02*
X0210705Y0079789D01*
X0210705Y0080387D02*
X0209905Y0080387D01*
X0209692Y0080986D02*
X0210918Y0080986D01*
X0211166Y0081584D02*
X0209444Y0081584D01*
X0209185Y0082183D02*
X0211425Y0082183D01*
X0212024Y0082781D02*
X0208586Y0082781D01*
X0207988Y0083380D02*
X0212622Y0083380D01*
X0213959Y0083978D02*
X0206652Y0083978D01*
X0206220Y0084957D02*
X0207911Y0085657D01*
X0209205Y0086951D01*
X0209905Y0088642D01*
X0209905Y0090472D01*
X0209205Y0092163D01*
X0207911Y0093457D01*
X0206220Y0094157D01*
X0204390Y0094157D01*
X0202699Y0093457D01*
X0201405Y0092163D01*
X0200705Y0090472D01*
X0200705Y0088642D01*
X0201405Y0086951D01*
X0202699Y0085657D01*
X0204390Y0084957D01*
X0206220Y0084957D01*
X0206747Y0085175D02*
X0213863Y0085175D01*
X0214390Y0084957D02*
X0216220Y0084957D01*
X0217911Y0085657D01*
X0219205Y0086951D01*
X0219905Y0088642D01*
X0219905Y0090472D01*
X0219205Y0092163D01*
X0217911Y0093457D01*
X0216220Y0094157D01*
X0214390Y0094157D01*
X0212699Y0093457D01*
X0211405Y0092163D01*
X0210705Y0090472D01*
X0210705Y0088642D01*
X0211405Y0086951D01*
X0212699Y0085657D01*
X0214390Y0084957D01*
X0212583Y0085774D02*
X0208027Y0085774D01*
X0208626Y0086372D02*
X0211984Y0086372D01*
X0211397Y0086971D02*
X0209213Y0086971D01*
X0209461Y0087569D02*
X0211149Y0087569D01*
X0210902Y0088168D02*
X0209709Y0088168D01*
X0209905Y0088766D02*
X0210705Y0088766D01*
X0210705Y0089365D02*
X0209905Y0089365D01*
X0209905Y0089963D02*
X0210705Y0089963D01*
X0210742Y0090562D02*
X0209868Y0090562D01*
X0209620Y0091160D02*
X0210990Y0091160D01*
X0211238Y0091759D02*
X0209372Y0091759D01*
X0209010Y0092357D02*
X0211600Y0092357D01*
X0212199Y0092956D02*
X0208412Y0092956D01*
X0207675Y0093555D02*
X0212935Y0093555D01*
X0214380Y0094153D02*
X0206230Y0094153D01*
X0206220Y0094957D02*
X0207911Y0095657D01*
X0209205Y0096951D01*
X0209905Y0098642D01*
X0209905Y0100472D01*
X0209205Y0102163D01*
X0207911Y0103457D01*
X0206220Y0104157D01*
X0204390Y0104157D01*
X0202699Y0103457D01*
X0201405Y0102163D01*
X0200705Y0100472D01*
X0200705Y0098642D01*
X0201405Y0096951D01*
X0202699Y0095657D01*
X0204390Y0094957D01*
X0206220Y0094957D01*
X0207169Y0095350D02*
X0213441Y0095350D01*
X0212699Y0095657D02*
X0214390Y0094957D01*
X0216220Y0094957D01*
X0217911Y0095657D01*
X0219205Y0096951D01*
X0219905Y0098642D01*
X0219905Y0100472D01*
X0219205Y0102163D01*
X0217911Y0103457D01*
X0216220Y0104157D01*
X0214390Y0104157D01*
X0212699Y0103457D01*
X0211405Y0102163D01*
X0210705Y0100472D01*
X0210705Y0098642D01*
X0211405Y0096951D01*
X0212699Y0095657D01*
X0212408Y0095949D02*
X0208202Y0095949D01*
X0208800Y0096547D02*
X0211810Y0096547D01*
X0211325Y0097146D02*
X0209285Y0097146D01*
X0209533Y0097744D02*
X0211077Y0097744D01*
X0210829Y0098343D02*
X0209781Y0098343D01*
X0209905Y0098941D02*
X0210705Y0098941D01*
X0210705Y0099540D02*
X0209905Y0099540D01*
X0209905Y0100138D02*
X0210705Y0100138D01*
X0210815Y0100737D02*
X0209796Y0100737D01*
X0209548Y0101335D02*
X0211063Y0101335D01*
X0211311Y0101934D02*
X0209300Y0101934D01*
X0208835Y0102532D02*
X0211775Y0102532D01*
X0212373Y0103131D02*
X0208237Y0103131D01*
X0207253Y0103729D02*
X0213357Y0103729D01*
X0214390Y0104957D02*
X0212699Y0105657D01*
X0211405Y0106951D01*
X0210705Y0108642D01*
X0210705Y0110472D01*
X0211405Y0112163D01*
X0212699Y0113457D01*
X0214390Y0114157D01*
X0216220Y0114157D01*
X0217911Y0113457D01*
X0219205Y0112163D01*
X0219905Y0110472D01*
X0219905Y0108642D01*
X0219205Y0106951D01*
X0217911Y0105657D01*
X0216220Y0104957D01*
X0214390Y0104957D01*
X0213020Y0105525D02*
X0207591Y0105525D01*
X0207911Y0105657D02*
X0209205Y0106951D01*
X0209905Y0108642D01*
X0209905Y0110472D01*
X0209205Y0112163D01*
X0207911Y0113457D01*
X0206220Y0114157D01*
X0204390Y0114157D01*
X0202699Y0113457D01*
X0201405Y0112163D01*
X0200705Y0110472D01*
X0200705Y0108642D01*
X0201405Y0106951D01*
X0202699Y0105657D01*
X0204390Y0104957D01*
X0206220Y0104957D01*
X0207911Y0105657D01*
X0208377Y0106123D02*
X0212234Y0106123D01*
X0211635Y0106722D02*
X0208975Y0106722D01*
X0209358Y0107320D02*
X0211253Y0107320D01*
X0211005Y0107919D02*
X0209605Y0107919D01*
X0209853Y0108517D02*
X0210757Y0108517D01*
X0210705Y0109116D02*
X0209905Y0109116D01*
X0209905Y0109714D02*
X0210705Y0109714D01*
X0210705Y0110313D02*
X0209905Y0110313D01*
X0209723Y0110911D02*
X0210887Y0110911D01*
X0211135Y0111510D02*
X0209475Y0111510D01*
X0209227Y0112108D02*
X0211383Y0112108D01*
X0211950Y0112707D02*
X0208661Y0112707D01*
X0208062Y0113305D02*
X0212548Y0113305D01*
X0213779Y0113904D02*
X0206831Y0113904D01*
X0206220Y0114957D02*
X0204390Y0114957D01*
X0202699Y0115657D01*
X0201405Y0116951D01*
X0200705Y0118642D01*
X0200705Y0120472D01*
X0201405Y0122163D01*
X0202699Y0123457D01*
X0204390Y0124157D01*
X0206220Y0124157D01*
X0207911Y0123457D01*
X0209205Y0122163D01*
X0209905Y0120472D01*
X0209905Y0118642D01*
X0209205Y0116951D01*
X0207911Y0115657D01*
X0206220Y0114957D01*
X0206567Y0115101D02*
X0214043Y0115101D01*
X0214390Y0114957D02*
X0216220Y0114957D01*
X0217911Y0115657D01*
X0219205Y0116951D01*
X0219905Y0118642D01*
X0219905Y0120472D01*
X0219205Y0122163D01*
X0217911Y0123457D01*
X0216220Y0124157D01*
X0214390Y0124157D01*
X0212699Y0123457D01*
X0211405Y0122163D01*
X0210705Y0120472D01*
X0210705Y0118642D01*
X0211405Y0116951D01*
X0212699Y0115657D01*
X0214390Y0114957D01*
X0212657Y0115699D02*
X0207953Y0115699D01*
X0208551Y0116298D02*
X0212059Y0116298D01*
X0211460Y0116896D02*
X0209150Y0116896D01*
X0209430Y0117495D02*
X0211180Y0117495D01*
X0210932Y0118093D02*
X0209678Y0118093D01*
X0209905Y0118692D02*
X0210705Y0118692D01*
X0210705Y0119290D02*
X0209905Y0119290D01*
X0209905Y0119889D02*
X0210705Y0119889D01*
X0210712Y0120488D02*
X0209899Y0120488D01*
X0209651Y0121086D02*
X0210959Y0121086D01*
X0211207Y0121685D02*
X0209403Y0121685D01*
X0209085Y0122283D02*
X0211526Y0122283D01*
X0212124Y0122882D02*
X0208486Y0122882D01*
X0207855Y0123480D02*
X0212756Y0123480D01*
X0214201Y0124079D02*
X0206410Y0124079D01*
X0206220Y0124957D02*
X0207911Y0125657D01*
X0209205Y0126951D01*
X0209905Y0128642D01*
X0209905Y0130472D01*
X0209205Y0132163D01*
X0207911Y0133457D01*
X0206220Y0134157D01*
X0204390Y0134157D01*
X0202699Y0133457D01*
X0201405Y0132163D01*
X0200705Y0130472D01*
X0200705Y0128642D01*
X0201405Y0126951D01*
X0202699Y0125657D01*
X0204390Y0124957D01*
X0206220Y0124957D01*
X0206989Y0125276D02*
X0213621Y0125276D01*
X0214390Y0124957D02*
X0216220Y0124957D01*
X0217911Y0125657D01*
X0219205Y0126951D01*
X0219905Y0128642D01*
X0219905Y0130472D01*
X0219205Y0132163D01*
X0217911Y0133457D01*
X0216220Y0134157D01*
X0214390Y0134157D01*
X0212699Y0133457D01*
X0211405Y0132163D01*
X0210705Y0130472D01*
X0210705Y0128642D01*
X0211405Y0126951D01*
X0212699Y0125657D01*
X0214390Y0124957D01*
X0212483Y0125874D02*
X0208128Y0125874D01*
X0208726Y0126473D02*
X0211884Y0126473D01*
X0211356Y0127071D02*
X0209254Y0127071D01*
X0209502Y0127670D02*
X0211108Y0127670D01*
X0210860Y0128268D02*
X0209750Y0128268D01*
X0209905Y0128867D02*
X0210705Y0128867D01*
X0210705Y0129465D02*
X0209905Y0129465D01*
X0209905Y0130064D02*
X0210705Y0130064D01*
X0210784Y0130662D02*
X0209826Y0130662D01*
X0209578Y0131261D02*
X0211032Y0131261D01*
X0211280Y0131859D02*
X0209331Y0131859D01*
X0208910Y0132458D02*
X0211700Y0132458D01*
X0212299Y0133056D02*
X0208311Y0133056D01*
X0207433Y0133655D02*
X0213177Y0133655D01*
X0214390Y0134957D02*
X0216220Y0134957D01*
X0217911Y0135657D01*
X0219205Y0136951D01*
X0219905Y0138642D01*
X0219905Y0140472D01*
X0219205Y0142163D01*
X0217911Y0143457D01*
X0216220Y0144157D01*
X0214390Y0144157D01*
X0212699Y0143457D01*
X0211405Y0142163D01*
X0210705Y0140472D01*
X0210705Y0138642D01*
X0211405Y0136951D01*
X0212699Y0135657D01*
X0214390Y0134957D01*
X0213199Y0135450D02*
X0207411Y0135450D01*
X0207911Y0135657D02*
X0209205Y0136951D01*
X0209905Y0138642D01*
X0209905Y0140472D01*
X0209205Y0142163D01*
X0207911Y0143457D01*
X0206220Y0144157D01*
X0204390Y0144157D01*
X0202699Y0143457D01*
X0201405Y0142163D01*
X0200705Y0140472D01*
X0200705Y0138642D01*
X0201405Y0136951D01*
X0202699Y0135657D01*
X0204390Y0134957D01*
X0206220Y0134957D01*
X0207911Y0135657D01*
X0208302Y0136049D02*
X0212308Y0136049D01*
X0211709Y0136647D02*
X0208901Y0136647D01*
X0209327Y0137246D02*
X0211283Y0137246D01*
X0211036Y0137844D02*
X0209575Y0137844D01*
X0209823Y0138443D02*
X0210788Y0138443D01*
X0210705Y0139041D02*
X0209905Y0139041D01*
X0209905Y0139640D02*
X0210705Y0139640D01*
X0210705Y0140238D02*
X0209905Y0140238D01*
X0209754Y0140837D02*
X0210856Y0140837D01*
X0211104Y0141435D02*
X0209506Y0141435D01*
X0209258Y0142034D02*
X0211352Y0142034D01*
X0211875Y0142632D02*
X0208735Y0142632D01*
X0208137Y0143231D02*
X0212474Y0143231D01*
X0213599Y0143829D02*
X0207011Y0143829D01*
X0206388Y0145026D02*
X0214223Y0145026D01*
X0214390Y0144957D02*
X0216220Y0144957D01*
X0217911Y0145657D01*
X0219205Y0146951D01*
X0219905Y0148642D01*
X0219905Y0150472D01*
X0219205Y0152163D01*
X0217911Y0153457D01*
X0216220Y0154157D01*
X0214390Y0154157D01*
X0212699Y0153457D01*
X0211405Y0152163D01*
X0210705Y0150472D01*
X0210705Y0148642D01*
X0211405Y0146951D01*
X0212699Y0145657D01*
X0214390Y0144957D01*
X0212778Y0145625D02*
X0207833Y0145625D01*
X0207911Y0145657D02*
X0209205Y0146951D01*
X0209905Y0148642D01*
X0209905Y0150472D01*
X0209205Y0152163D01*
X0207911Y0153457D01*
X0206220Y0154157D01*
X0204390Y0154157D01*
X0202699Y0153457D01*
X0201405Y0152163D01*
X0200705Y0150472D01*
X0200705Y0148642D01*
X0201405Y0146951D01*
X0202699Y0145657D01*
X0204390Y0144957D01*
X0206220Y0144957D01*
X0207911Y0145657D01*
X0208477Y0146223D02*
X0212133Y0146223D01*
X0211535Y0146822D02*
X0209075Y0146822D01*
X0209399Y0147421D02*
X0211211Y0147421D01*
X0210963Y0148019D02*
X0209647Y0148019D01*
X0209895Y0148618D02*
X0210715Y0148618D01*
X0210705Y0149216D02*
X0209905Y0149216D01*
X0209905Y0149815D02*
X0210705Y0149815D01*
X0210705Y0150413D02*
X0209905Y0150413D01*
X0209682Y0151012D02*
X0210929Y0151012D01*
X0211177Y0151610D02*
X0209434Y0151610D01*
X0209159Y0152209D02*
X0211451Y0152209D01*
X0212050Y0152807D02*
X0208560Y0152807D01*
X0207962Y0153406D02*
X0212648Y0153406D01*
X0214021Y0154004D02*
X0206589Y0154004D01*
X0206220Y0154957D02*
X0207911Y0155657D01*
X0209205Y0156951D01*
X0209905Y0158642D01*
X0209905Y0160472D01*
X0209205Y0162163D01*
X0207911Y0163457D01*
X0206220Y0164157D01*
X0204390Y0164157D01*
X0202699Y0163457D01*
X0201405Y0162163D01*
X0200705Y0160472D01*
X0200705Y0158642D01*
X0201405Y0156951D01*
X0202699Y0155657D01*
X0204390Y0154957D01*
X0206220Y0154957D01*
X0206809Y0155201D02*
X0213801Y0155201D01*
X0214390Y0154957D02*
X0216220Y0154957D01*
X0217911Y0155657D01*
X0219205Y0156951D01*
X0219905Y0158642D01*
X0219905Y0160472D01*
X0219205Y0162163D01*
X0217911Y0163457D01*
X0216220Y0164157D01*
X0214390Y0164157D01*
X0212699Y0163457D01*
X0211405Y0162163D01*
X0210705Y0160472D01*
X0210705Y0158642D01*
X0211405Y0156951D01*
X0212699Y0155657D01*
X0214390Y0154957D01*
X0212557Y0155800D02*
X0208053Y0155800D01*
X0208652Y0156398D02*
X0211959Y0156398D01*
X0211387Y0156997D02*
X0209224Y0156997D01*
X0209471Y0157595D02*
X0211139Y0157595D01*
X0210891Y0158194D02*
X0209719Y0158194D01*
X0209905Y0158792D02*
X0210705Y0158792D01*
X0210705Y0159391D02*
X0209905Y0159391D01*
X0209905Y0159989D02*
X0210705Y0159989D01*
X0210753Y0160588D02*
X0209857Y0160588D01*
X0209609Y0161186D02*
X0211001Y0161186D01*
X0211249Y0161785D02*
X0209361Y0161785D01*
X0208984Y0162383D02*
X0211626Y0162383D01*
X0212224Y0162982D02*
X0208386Y0162982D01*
X0207613Y0163580D02*
X0212998Y0163580D01*
X0213379Y0165376D02*
X0207231Y0165376D01*
X0207911Y0165657D02*
X0209205Y0166951D01*
X0209905Y0168642D01*
X0209905Y0170472D01*
X0209205Y0172163D01*
X0207911Y0173457D01*
X0206220Y0174157D01*
X0204390Y0174157D01*
X0202699Y0173457D01*
X0201405Y0172163D01*
X0200705Y0170472D01*
X0200705Y0168642D01*
X0201405Y0166951D01*
X0202699Y0165657D01*
X0204390Y0164957D01*
X0206220Y0164957D01*
X0207911Y0165657D01*
X0208228Y0165974D02*
X0212382Y0165974D01*
X0212699Y0165657D02*
X0214390Y0164957D01*
X0216220Y0164957D01*
X0217911Y0165657D01*
X0219205Y0166951D01*
X0219905Y0168642D01*
X0219905Y0170472D01*
X0219205Y0172163D01*
X0217911Y0173457D01*
X0216220Y0174157D01*
X0214390Y0174157D01*
X0212699Y0173457D01*
X0211405Y0172163D01*
X0210705Y0170472D01*
X0210705Y0168642D01*
X0211405Y0166951D01*
X0212699Y0165657D01*
X0211784Y0166573D02*
X0208826Y0166573D01*
X0209296Y0167171D02*
X0211314Y0167171D01*
X0211066Y0167770D02*
X0209544Y0167770D01*
X0209792Y0168368D02*
X0210818Y0168368D01*
X0210705Y0168967D02*
X0209905Y0168967D01*
X0209905Y0169565D02*
X0210705Y0169565D01*
X0210705Y0170164D02*
X0209905Y0170164D01*
X0209785Y0170762D02*
X0210825Y0170762D01*
X0211073Y0171361D02*
X0209537Y0171361D01*
X0209289Y0171959D02*
X0211321Y0171959D01*
X0211801Y0172558D02*
X0208810Y0172558D01*
X0208211Y0173157D02*
X0212399Y0173157D01*
X0213419Y0173755D02*
X0207191Y0173755D01*
X0207224Y0174923D02*
X0207926Y0175281D01*
X0208562Y0175743D01*
X0209119Y0176300D01*
X0209581Y0176937D01*
X0209939Y0177638D01*
X0210182Y0178386D01*
X0210305Y0179164D01*
X0210305Y0179257D01*
X0205605Y0179257D01*
X0205605Y0174557D01*
X0205699Y0174557D01*
X0206476Y0174680D01*
X0207224Y0174923D01*
X0207281Y0174952D02*
X0233579Y0174952D01*
X0233578Y0174354D02*
X0006065Y0174354D01*
X0006066Y0174952D02*
X0203330Y0174952D01*
X0203386Y0174923D02*
X0204134Y0174680D01*
X0204912Y0174557D01*
X0205005Y0174557D01*
X0205005Y0179257D01*
X0200305Y0179257D01*
X0200305Y0179164D01*
X0200428Y0178386D01*
X0200671Y0177638D01*
X0201029Y0176937D01*
X0201491Y0176300D01*
X0202048Y0175743D01*
X0202685Y0175281D01*
X0203386Y0174923D01*
X0203419Y0173755D02*
X0006064Y0173755D01*
X0006063Y0173157D02*
X0202399Y0173157D01*
X0201801Y0172558D02*
X0006062Y0172558D01*
X0006061Y0171959D02*
X0201321Y0171959D01*
X0201073Y0171361D02*
X0006060Y0171361D01*
X0006059Y0170762D02*
X0200825Y0170762D01*
X0200705Y0170164D02*
X0006058Y0170164D01*
X0006057Y0169565D02*
X0200705Y0169565D01*
X0200705Y0168967D02*
X0006056Y0168967D01*
X0006056Y0168368D02*
X0200818Y0168368D01*
X0201066Y0167770D02*
X0006055Y0167770D01*
X0006054Y0167171D02*
X0201314Y0167171D01*
X0201784Y0166573D02*
X0006053Y0166573D01*
X0006052Y0165974D02*
X0202382Y0165974D01*
X0203379Y0165376D02*
X0006051Y0165376D01*
X0006050Y0164777D02*
X0088568Y0164777D01*
X0088855Y0165065D02*
X0086805Y0163015D01*
X0086805Y0160115D01*
X0088855Y0158065D01*
X0091755Y0158065D01*
X0093805Y0160115D01*
X0093805Y0163015D01*
X0091755Y0165065D01*
X0088855Y0165065D01*
X0087969Y0164179D02*
X0006049Y0164179D01*
X0006048Y0163580D02*
X0087371Y0163580D01*
X0086805Y0162982D02*
X0006047Y0162982D01*
X0006046Y0162383D02*
X0086805Y0162383D01*
X0086805Y0161785D02*
X0006045Y0161785D01*
X0006045Y0161186D02*
X0086805Y0161186D01*
X0086805Y0160588D02*
X0006044Y0160588D01*
X0006043Y0159989D02*
X0086931Y0159989D01*
X0087530Y0159391D02*
X0006042Y0159391D01*
X0006041Y0158792D02*
X0088128Y0158792D01*
X0088727Y0158194D02*
X0006040Y0158194D01*
X0006039Y0157595D02*
X0201139Y0157595D01*
X0201387Y0156997D02*
X0006038Y0156997D01*
X0006037Y0156398D02*
X0201959Y0156398D01*
X0202557Y0155800D02*
X0006036Y0155800D01*
X0006035Y0155201D02*
X0203801Y0155201D01*
X0204021Y0154004D02*
X0006034Y0154004D01*
X0006033Y0153406D02*
X0202648Y0153406D01*
X0202050Y0152807D02*
X0006032Y0152807D01*
X0006031Y0152209D02*
X0201451Y0152209D01*
X0201177Y0151610D02*
X0075979Y0151610D01*
X0075690Y0151704D02*
X0075021Y0151810D01*
X0071983Y0151810D01*
X0071983Y0147810D01*
X0071383Y0147810D01*
X0071383Y0151810D01*
X0068345Y0151810D01*
X0067676Y0151704D01*
X0067032Y0151495D01*
X0066429Y0151188D01*
X0065882Y0150790D01*
X0065403Y0150311D01*
X0065005Y0149764D01*
X0064698Y0149160D01*
X0064489Y0148517D01*
X0064383Y0147848D01*
X0064383Y0147810D01*
X0071383Y0147810D01*
X0071383Y0147210D01*
X0064383Y0147210D01*
X0064383Y0147171D01*
X0064489Y0146503D01*
X0064698Y0145859D01*
X0065005Y0145256D01*
X0065403Y0144709D01*
X0065882Y0144230D01*
X0066429Y0143832D01*
X0067032Y0143525D01*
X0067676Y0143316D01*
X0068345Y0143210D01*
X0071383Y0143210D01*
X0071383Y0147210D01*
X0071983Y0147210D01*
X0071983Y0147810D01*
X0078983Y0147810D01*
X0078983Y0147848D01*
X0078877Y0148517D01*
X0078668Y0149160D01*
X0078361Y0149764D01*
X0077963Y0150311D01*
X0077484Y0150790D01*
X0076937Y0151188D01*
X0076334Y0151495D01*
X0075690Y0151704D01*
X0077179Y0151012D02*
X0200929Y0151012D01*
X0200705Y0150413D02*
X0077861Y0150413D01*
X0078324Y0149815D02*
X0200705Y0149815D01*
X0200705Y0149216D02*
X0078640Y0149216D01*
X0078844Y0148618D02*
X0200715Y0148618D01*
X0200963Y0148019D02*
X0078956Y0148019D01*
X0078983Y0147210D02*
X0071983Y0147210D01*
X0071983Y0143210D01*
X0075021Y0143210D01*
X0075690Y0143316D01*
X0076334Y0143525D01*
X0076937Y0143832D01*
X0077484Y0144230D01*
X0077963Y0144709D01*
X0078361Y0145256D01*
X0078668Y0145859D01*
X0078877Y0146503D01*
X0078983Y0147171D01*
X0078983Y0147210D01*
X0078928Y0146822D02*
X0201535Y0146822D01*
X0201211Y0147421D02*
X0071983Y0147421D01*
X0071983Y0148019D02*
X0071383Y0148019D01*
X0071383Y0147421D02*
X0051463Y0147421D01*
X0051463Y0147416D02*
X0051463Y0147455D01*
X0051357Y0148123D01*
X0051148Y0148767D01*
X0050841Y0149370D01*
X0050443Y0149917D01*
X0049965Y0150396D01*
X0049417Y0150794D01*
X0048814Y0151101D01*
X0048170Y0151310D01*
X0047502Y0151416D01*
X0044463Y0151416D01*
X0044463Y0147416D01*
X0043863Y0147416D01*
X0043863Y0146816D01*
X0036863Y0146816D01*
X0036863Y0146778D01*
X0036969Y0146109D01*
X0037178Y0145466D01*
X0037486Y0144862D01*
X0037884Y0144315D01*
X0038362Y0143836D01*
X0038910Y0143438D01*
X0039513Y0143131D01*
X0040156Y0142922D01*
X0040825Y0142816D01*
X0043863Y0142816D01*
X0043863Y0146816D01*
X0044463Y0146816D01*
X0044463Y0142816D01*
X0047502Y0142816D01*
X0048170Y0142922D01*
X0048814Y0143131D01*
X0049417Y0143438D01*
X0049965Y0143836D01*
X0050443Y0144315D01*
X0050841Y0144862D01*
X0051148Y0145466D01*
X0051357Y0146109D01*
X0051463Y0146778D01*
X0051463Y0146816D01*
X0044463Y0146816D01*
X0044463Y0147416D01*
X0051463Y0147416D01*
X0051374Y0148019D02*
X0064410Y0148019D01*
X0064522Y0148618D02*
X0051197Y0148618D01*
X0050919Y0149216D02*
X0064726Y0149216D01*
X0065042Y0149815D02*
X0050518Y0149815D01*
X0049941Y0150413D02*
X0065505Y0150413D01*
X0066187Y0151012D02*
X0048990Y0151012D01*
X0051376Y0146223D02*
X0064580Y0146223D01*
X0064438Y0146822D02*
X0044463Y0146822D01*
X0044463Y0146223D02*
X0043863Y0146223D01*
X0043863Y0145625D02*
X0044463Y0145625D01*
X0044463Y0145026D02*
X0043863Y0145026D01*
X0043863Y0144428D02*
X0044463Y0144428D01*
X0044463Y0143829D02*
X0043863Y0143829D01*
X0043863Y0143231D02*
X0044463Y0143231D01*
X0043863Y0146822D02*
X0006023Y0146822D01*
X0006022Y0146223D02*
X0036951Y0146223D01*
X0037127Y0145625D02*
X0006021Y0145625D01*
X0006020Y0145026D02*
X0037402Y0145026D01*
X0037801Y0144428D02*
X0006019Y0144428D01*
X0006018Y0143829D02*
X0038372Y0143829D01*
X0039317Y0143231D02*
X0006017Y0143231D01*
X0006016Y0142632D02*
X0201875Y0142632D01*
X0201352Y0142034D02*
X0006015Y0142034D01*
X0006014Y0141435D02*
X0201104Y0141435D01*
X0200856Y0140837D02*
X0076842Y0140837D01*
X0076892Y0140816D02*
X0075459Y0141410D01*
X0067907Y0141410D01*
X0066474Y0140816D01*
X0065377Y0139719D01*
X0064783Y0138286D01*
X0064783Y0136734D01*
X0065377Y0135301D01*
X0066474Y0134204D01*
X0067907Y0133610D01*
X0075459Y0133610D01*
X0076892Y0134204D01*
X0077989Y0135301D01*
X0078583Y0136734D01*
X0078583Y0138286D01*
X0077989Y0139719D01*
X0076892Y0140816D01*
X0077470Y0140238D02*
X0200705Y0140238D01*
X0200705Y0139640D02*
X0078022Y0139640D01*
X0078270Y0139041D02*
X0200705Y0139041D01*
X0200788Y0138443D02*
X0078518Y0138443D01*
X0078583Y0137844D02*
X0201036Y0137844D01*
X0201283Y0137246D02*
X0078583Y0137246D01*
X0078547Y0136647D02*
X0201709Y0136647D01*
X0202308Y0136049D02*
X0078299Y0136049D01*
X0078051Y0135450D02*
X0203199Y0135450D01*
X0203177Y0133655D02*
X0075567Y0133655D01*
X0076942Y0134253D02*
X0233517Y0134253D01*
X0233516Y0133655D02*
X0217433Y0133655D01*
X0218311Y0133056D02*
X0233515Y0133056D01*
X0233515Y0132458D02*
X0218910Y0132458D01*
X0219331Y0131859D02*
X0233514Y0131859D01*
X0233513Y0131261D02*
X0219578Y0131261D01*
X0219826Y0130662D02*
X0233512Y0130662D01*
X0233511Y0130064D02*
X0219905Y0130064D01*
X0219905Y0129465D02*
X0233510Y0129465D01*
X0233509Y0128867D02*
X0219905Y0128867D01*
X0219750Y0128268D02*
X0233508Y0128268D01*
X0233507Y0127670D02*
X0219502Y0127670D01*
X0219254Y0127071D02*
X0233506Y0127071D01*
X0233505Y0126473D02*
X0218726Y0126473D01*
X0218128Y0125874D02*
X0233504Y0125874D01*
X0233504Y0125276D02*
X0216989Y0125276D01*
X0216410Y0124079D02*
X0233502Y0124079D01*
X0233503Y0124677D02*
X0077366Y0124677D01*
X0076892Y0124204D02*
X0077989Y0125301D01*
X0078583Y0126734D01*
X0078583Y0128286D01*
X0077989Y0129719D01*
X0076892Y0130816D01*
X0075459Y0131410D01*
X0067907Y0131410D01*
X0066474Y0130816D01*
X0065377Y0129719D01*
X0064783Y0128286D01*
X0064783Y0126734D01*
X0065377Y0125301D01*
X0066474Y0124204D01*
X0067907Y0123610D01*
X0075459Y0123610D01*
X0076892Y0124204D01*
X0076590Y0124079D02*
X0204201Y0124079D01*
X0203621Y0125276D02*
X0077964Y0125276D01*
X0078227Y0125874D02*
X0202483Y0125874D01*
X0201884Y0126473D02*
X0078475Y0126473D01*
X0078583Y0127071D02*
X0201356Y0127071D01*
X0201108Y0127670D02*
X0078583Y0127670D01*
X0078583Y0128268D02*
X0200860Y0128268D01*
X0200705Y0128867D02*
X0078342Y0128867D01*
X0078094Y0129465D02*
X0200705Y0129465D01*
X0200705Y0130064D02*
X0077645Y0130064D01*
X0077046Y0130662D02*
X0200784Y0130662D01*
X0201032Y0131261D02*
X0075819Y0131261D01*
X0077540Y0134852D02*
X0233518Y0134852D01*
X0233519Y0135450D02*
X0217411Y0135450D01*
X0218302Y0136049D02*
X0233520Y0136049D01*
X0233521Y0136647D02*
X0218901Y0136647D01*
X0219327Y0137246D02*
X0233522Y0137246D01*
X0233523Y0137844D02*
X0219575Y0137844D01*
X0219823Y0138443D02*
X0233524Y0138443D01*
X0233525Y0139041D02*
X0219905Y0139041D01*
X0219905Y0139640D02*
X0233525Y0139640D01*
X0233526Y0140238D02*
X0219905Y0140238D01*
X0219754Y0140837D02*
X0233527Y0140837D01*
X0233528Y0141435D02*
X0219506Y0141435D01*
X0219258Y0142034D02*
X0233529Y0142034D01*
X0233530Y0142632D02*
X0218735Y0142632D01*
X0218137Y0143231D02*
X0233531Y0143231D01*
X0233532Y0143829D02*
X0217011Y0143829D01*
X0216388Y0145026D02*
X0233534Y0145026D01*
X0233533Y0144428D02*
X0077682Y0144428D01*
X0078194Y0145026D02*
X0204223Y0145026D01*
X0203599Y0143829D02*
X0076931Y0143829D01*
X0075155Y0143231D02*
X0202474Y0143231D01*
X0202778Y0145625D02*
X0078549Y0145625D01*
X0078786Y0146223D02*
X0202133Y0146223D01*
X0200891Y0158194D02*
X0111884Y0158194D01*
X0111755Y0158065D02*
X0113805Y0160115D01*
X0113805Y0163015D01*
X0111755Y0165065D01*
X0108855Y0165065D01*
X0106805Y0163015D01*
X0106805Y0160115D01*
X0108855Y0158065D01*
X0111755Y0158065D01*
X0112482Y0158792D02*
X0200705Y0158792D01*
X0200705Y0159391D02*
X0113081Y0159391D01*
X0113679Y0159989D02*
X0200705Y0159989D01*
X0200753Y0160588D02*
X0113805Y0160588D01*
X0113805Y0161186D02*
X0201001Y0161186D01*
X0201249Y0161785D02*
X0113805Y0161785D01*
X0113805Y0162383D02*
X0201626Y0162383D01*
X0202224Y0162982D02*
X0113805Y0162982D01*
X0113239Y0163580D02*
X0202998Y0163580D01*
X0205005Y0174952D02*
X0205605Y0174952D01*
X0205605Y0175551D02*
X0205005Y0175551D01*
X0205005Y0176149D02*
X0205605Y0176149D01*
X0205605Y0176748D02*
X0205005Y0176748D01*
X0205005Y0177346D02*
X0205605Y0177346D01*
X0205605Y0177945D02*
X0205005Y0177945D01*
X0205005Y0178543D02*
X0205605Y0178543D01*
X0205605Y0179142D02*
X0205005Y0179142D01*
X0205005Y0179257D02*
X0205605Y0179257D01*
X0205605Y0179857D01*
X0205005Y0179857D01*
X0205005Y0179257D01*
X0205005Y0179740D02*
X0006073Y0179740D01*
X0006072Y0179142D02*
X0200309Y0179142D01*
X0200403Y0178543D02*
X0006071Y0178543D01*
X0006070Y0177945D02*
X0200572Y0177945D01*
X0200820Y0177346D02*
X0006069Y0177346D01*
X0006068Y0176748D02*
X0201166Y0176748D01*
X0201642Y0176149D02*
X0006067Y0176149D01*
X0006066Y0175551D02*
X0202313Y0175551D01*
X0200305Y0179857D02*
X0205005Y0179857D01*
X0205005Y0184557D01*
X0204912Y0184557D01*
X0204134Y0184434D01*
X0203386Y0184191D01*
X0202685Y0183833D01*
X0202048Y0183371D01*
X0201491Y0182814D01*
X0201029Y0182178D01*
X0200671Y0181476D01*
X0200428Y0180728D01*
X0200305Y0179951D01*
X0200305Y0179857D01*
X0200367Y0180339D02*
X0006074Y0180339D01*
X0006075Y0180937D02*
X0200496Y0180937D01*
X0200702Y0181536D02*
X0006076Y0181536D01*
X0006077Y0182134D02*
X0201007Y0182134D01*
X0201432Y0182733D02*
X0006077Y0182733D01*
X0006078Y0183331D02*
X0202008Y0183331D01*
X0202873Y0183930D02*
X0006079Y0183930D01*
X0006080Y0184528D02*
X0204729Y0184528D01*
X0205005Y0184528D02*
X0205605Y0184528D01*
X0205605Y0184557D02*
X0205699Y0184557D01*
X0206476Y0184434D01*
X0207224Y0184191D01*
X0207926Y0183833D01*
X0208562Y0183371D01*
X0209119Y0182814D01*
X0209581Y0182178D01*
X0209939Y0181476D01*
X0210182Y0180728D01*
X0210305Y0179951D01*
X0210305Y0179857D01*
X0205605Y0179857D01*
X0205605Y0184557D01*
X0205881Y0184528D02*
X0233594Y0184528D01*
X0233593Y0183930D02*
X0216769Y0183930D01*
X0216220Y0184157D02*
X0214390Y0184157D01*
X0212699Y0183457D01*
X0211405Y0182163D01*
X0210705Y0180472D01*
X0210705Y0178642D01*
X0211405Y0176951D01*
X0212699Y0175657D01*
X0214390Y0174957D01*
X0216220Y0174957D01*
X0217911Y0175657D01*
X0219205Y0176951D01*
X0219905Y0178642D01*
X0219905Y0180472D01*
X0219205Y0182163D01*
X0217911Y0183457D01*
X0216220Y0184157D01*
X0216220Y0184957D02*
X0214390Y0184957D01*
X0212699Y0185657D01*
X0211405Y0186951D01*
X0210705Y0188642D01*
X0210705Y0190472D01*
X0211405Y0192163D01*
X0212699Y0193457D01*
X0214390Y0194157D01*
X0216220Y0194157D01*
X0217911Y0193457D01*
X0219205Y0192163D01*
X0219905Y0190472D01*
X0219905Y0188642D01*
X0219205Y0186951D01*
X0217911Y0185657D01*
X0216220Y0184957D01*
X0216630Y0185127D02*
X0233595Y0185127D01*
X0233596Y0185725D02*
X0217979Y0185725D01*
X0218577Y0186324D02*
X0233597Y0186324D01*
X0233598Y0186922D02*
X0219176Y0186922D01*
X0219441Y0187521D02*
X0233599Y0187521D01*
X0233599Y0188119D02*
X0219689Y0188119D01*
X0219905Y0188718D02*
X0233600Y0188718D01*
X0233601Y0189316D02*
X0219905Y0189316D01*
X0219905Y0189915D02*
X0233602Y0189915D01*
X0233603Y0190513D02*
X0219888Y0190513D01*
X0219640Y0191112D02*
X0233604Y0191112D01*
X0233605Y0191710D02*
X0219392Y0191710D01*
X0219059Y0192309D02*
X0233606Y0192309D01*
X0233607Y0192907D02*
X0218460Y0192907D01*
X0217792Y0193506D02*
X0233608Y0193506D01*
X0233609Y0194104D02*
X0216347Y0194104D01*
X0216220Y0194957D02*
X0217911Y0195657D01*
X0219205Y0196951D01*
X0219905Y0198642D01*
X0219905Y0200472D01*
X0219205Y0202163D01*
X0217911Y0203457D01*
X0216220Y0204157D01*
X0214390Y0204157D01*
X0212699Y0203457D01*
X0211405Y0202163D01*
X0210705Y0200472D01*
X0210705Y0198642D01*
X0211405Y0196951D01*
X0212699Y0195657D01*
X0214390Y0194957D01*
X0216220Y0194957D01*
X0217051Y0195301D02*
X0233610Y0195301D01*
X0233610Y0194703D02*
X0165752Y0194703D01*
X0166226Y0194977D02*
X0168153Y0196904D01*
X0169516Y0199263D01*
X0170221Y0201895D01*
X0170221Y0204620D01*
X0169516Y0207252D01*
X0168153Y0209612D01*
X0166226Y0211539D01*
X0163867Y0212901D01*
X0161234Y0213607D01*
X0158510Y0213607D01*
X0155878Y0212901D01*
X0153518Y0211539D01*
X0151591Y0209612D01*
X0150228Y0207252D01*
X0149523Y0204620D01*
X0149523Y0201895D01*
X0150228Y0199263D01*
X0151591Y0196904D01*
X0153518Y0194977D01*
X0155878Y0193614D01*
X0158510Y0192909D01*
X0161234Y0192909D01*
X0163867Y0193614D01*
X0166226Y0194977D01*
X0166551Y0195301D02*
X0203559Y0195301D01*
X0204390Y0194957D02*
X0202699Y0195657D01*
X0201405Y0196951D01*
X0200705Y0198642D01*
X0200705Y0200472D01*
X0201405Y0202163D01*
X0202699Y0203457D01*
X0204390Y0204157D01*
X0206220Y0204157D01*
X0207911Y0203457D01*
X0209205Y0202163D01*
X0209905Y0200472D01*
X0209905Y0198642D01*
X0209205Y0196951D01*
X0207911Y0195657D01*
X0206220Y0194957D01*
X0204390Y0194957D01*
X0204390Y0194157D02*
X0202699Y0193457D01*
X0201405Y0192163D01*
X0200705Y0190472D01*
X0200705Y0188642D01*
X0201405Y0186951D01*
X0202699Y0185657D01*
X0204390Y0184957D01*
X0206220Y0184957D01*
X0207911Y0185657D01*
X0209205Y0186951D01*
X0209905Y0188642D01*
X0209905Y0190472D01*
X0209205Y0192163D01*
X0207911Y0193457D01*
X0206220Y0194157D01*
X0204390Y0194157D01*
X0204263Y0194104D02*
X0164715Y0194104D01*
X0163462Y0193506D02*
X0202818Y0193506D01*
X0202150Y0192907D02*
X0006093Y0192907D01*
X0006092Y0192309D02*
X0201552Y0192309D01*
X0201218Y0191710D02*
X0006091Y0191710D01*
X0006090Y0191112D02*
X0200970Y0191112D01*
X0200722Y0190513D02*
X0006089Y0190513D01*
X0006088Y0189915D02*
X0200705Y0189915D01*
X0200705Y0189316D02*
X0006088Y0189316D01*
X0006087Y0188718D02*
X0200705Y0188718D01*
X0200922Y0188119D02*
X0006086Y0188119D01*
X0006085Y0187521D02*
X0201170Y0187521D01*
X0201435Y0186922D02*
X0006084Y0186922D01*
X0006083Y0186324D02*
X0202033Y0186324D01*
X0202632Y0185725D02*
X0006082Y0185725D01*
X0006081Y0185127D02*
X0203981Y0185127D01*
X0205005Y0183930D02*
X0205605Y0183930D01*
X0205605Y0183331D02*
X0205005Y0183331D01*
X0205005Y0182733D02*
X0205605Y0182733D01*
X0205605Y0182134D02*
X0205005Y0182134D01*
X0205005Y0181536D02*
X0205605Y0181536D01*
X0205605Y0180937D02*
X0205005Y0180937D01*
X0205005Y0180339D02*
X0205605Y0180339D01*
X0205605Y0179740D02*
X0210705Y0179740D01*
X0210705Y0179142D02*
X0210302Y0179142D01*
X0210207Y0178543D02*
X0210746Y0178543D01*
X0210994Y0177945D02*
X0210038Y0177945D01*
X0209790Y0177346D02*
X0211242Y0177346D01*
X0211609Y0176748D02*
X0209444Y0176748D01*
X0208968Y0176149D02*
X0212208Y0176149D01*
X0212957Y0175551D02*
X0208297Y0175551D01*
X0210244Y0180339D02*
X0210705Y0180339D01*
X0210898Y0180937D02*
X0210114Y0180937D01*
X0209909Y0181536D02*
X0211146Y0181536D01*
X0211394Y0182134D02*
X0209604Y0182134D01*
X0209178Y0182733D02*
X0211975Y0182733D01*
X0212574Y0183331D02*
X0208602Y0183331D01*
X0207737Y0183930D02*
X0213841Y0183930D01*
X0213981Y0185127D02*
X0206630Y0185127D01*
X0207979Y0185725D02*
X0212632Y0185725D01*
X0212033Y0186324D02*
X0208577Y0186324D01*
X0209176Y0186922D02*
X0211435Y0186922D01*
X0211170Y0187521D02*
X0209441Y0187521D01*
X0209689Y0188119D02*
X0210922Y0188119D01*
X0210705Y0188718D02*
X0209905Y0188718D01*
X0209905Y0189316D02*
X0210705Y0189316D01*
X0210705Y0189915D02*
X0209905Y0189915D01*
X0209888Y0190513D02*
X0210722Y0190513D01*
X0210970Y0191112D02*
X0209640Y0191112D01*
X0209392Y0191710D02*
X0211218Y0191710D01*
X0211552Y0192309D02*
X0209059Y0192309D01*
X0208460Y0192907D02*
X0212150Y0192907D01*
X0212818Y0193506D02*
X0207792Y0193506D01*
X0206347Y0194104D02*
X0214263Y0194104D01*
X0213559Y0195301D02*
X0207051Y0195301D01*
X0208153Y0195900D02*
X0212457Y0195900D01*
X0211858Y0196498D02*
X0208752Y0196498D01*
X0209265Y0197097D02*
X0211345Y0197097D01*
X0211097Y0197695D02*
X0209513Y0197695D01*
X0209761Y0198294D02*
X0210849Y0198294D01*
X0210705Y0198892D02*
X0209905Y0198892D01*
X0209905Y0199491D02*
X0210705Y0199491D01*
X0210705Y0200090D02*
X0209905Y0200090D01*
X0209816Y0200688D02*
X0210795Y0200688D01*
X0211042Y0201287D02*
X0209568Y0201287D01*
X0209320Y0201885D02*
X0211290Y0201885D01*
X0211726Y0202484D02*
X0208884Y0202484D01*
X0208285Y0203082D02*
X0212325Y0203082D01*
X0213240Y0203681D02*
X0207370Y0203681D01*
X0206220Y0204957D02*
X0207911Y0205657D01*
X0209205Y0206951D01*
X0209905Y0208642D01*
X0209905Y0210472D01*
X0209205Y0212163D01*
X0207911Y0213457D01*
X0206220Y0214157D01*
X0204390Y0214157D01*
X0202699Y0213457D01*
X0201405Y0212163D01*
X0200705Y0210472D01*
X0200705Y0208642D01*
X0201405Y0206951D01*
X0202699Y0205657D01*
X0204390Y0204957D01*
X0206220Y0204957D01*
X0207473Y0205476D02*
X0213137Y0205476D01*
X0212699Y0205657D02*
X0214390Y0204957D01*
X0216220Y0204957D01*
X0217911Y0205657D01*
X0219205Y0206951D01*
X0219905Y0208642D01*
X0219905Y0210472D01*
X0219205Y0212163D01*
X0217911Y0213457D01*
X0216220Y0214157D01*
X0214390Y0214157D01*
X0212699Y0213457D01*
X0211405Y0212163D01*
X0210705Y0210472D01*
X0210705Y0208642D01*
X0211405Y0206951D01*
X0212699Y0205657D01*
X0212282Y0206075D02*
X0208328Y0206075D01*
X0208927Y0206673D02*
X0211684Y0206673D01*
X0211273Y0207272D02*
X0209337Y0207272D01*
X0209585Y0207870D02*
X0211025Y0207870D01*
X0210777Y0208469D02*
X0209833Y0208469D01*
X0209905Y0209067D02*
X0210705Y0209067D01*
X0210705Y0209666D02*
X0209905Y0209666D01*
X0209905Y0210264D02*
X0210705Y0210264D01*
X0210867Y0210863D02*
X0209743Y0210863D01*
X0209495Y0211461D02*
X0211115Y0211461D01*
X0211363Y0212060D02*
X0209247Y0212060D01*
X0208709Y0212658D02*
X0211901Y0212658D01*
X0212499Y0213257D02*
X0208111Y0213257D01*
X0206949Y0213855D02*
X0213662Y0213855D01*
X0214160Y0215052D02*
X0206450Y0215052D01*
X0206220Y0214957D02*
X0207911Y0215657D01*
X0209205Y0216951D01*
X0209905Y0218642D01*
X0209905Y0220472D01*
X0209205Y0222163D01*
X0207911Y0223457D01*
X0206220Y0224157D01*
X0204390Y0224157D01*
X0202699Y0223457D01*
X0201405Y0222163D01*
X0200705Y0220472D01*
X0200705Y0218642D01*
X0201405Y0216951D01*
X0202699Y0215657D01*
X0204390Y0214957D01*
X0206220Y0214957D01*
X0207895Y0215651D02*
X0212715Y0215651D01*
X0212699Y0215657D02*
X0214390Y0214957D01*
X0216220Y0214957D01*
X0217911Y0215657D01*
X0219205Y0216951D01*
X0219905Y0218642D01*
X0219905Y0220472D01*
X0219205Y0222163D01*
X0217911Y0223457D01*
X0216220Y0224157D01*
X0214390Y0224157D01*
X0212699Y0223457D01*
X0211405Y0222163D01*
X0210705Y0220472D01*
X0210705Y0218642D01*
X0211405Y0216951D01*
X0212699Y0215657D01*
X0212107Y0216249D02*
X0208503Y0216249D01*
X0209101Y0216848D02*
X0211509Y0216848D01*
X0211200Y0217446D02*
X0209410Y0217446D01*
X0209658Y0218045D02*
X0210952Y0218045D01*
X0210705Y0218643D02*
X0209905Y0218643D01*
X0209905Y0219242D02*
X0210705Y0219242D01*
X0210705Y0219840D02*
X0209905Y0219840D01*
X0209905Y0220439D02*
X0210705Y0220439D01*
X0210939Y0221037D02*
X0209671Y0221037D01*
X0209423Y0221636D02*
X0211187Y0221636D01*
X0211477Y0222234D02*
X0209133Y0222234D01*
X0208535Y0222833D02*
X0212076Y0222833D01*
X0212674Y0223431D02*
X0207936Y0223431D01*
X0206527Y0224030D02*
X0214083Y0224030D01*
X0216527Y0224030D02*
X0233654Y0224030D01*
X0233655Y0224628D02*
X0170473Y0224628D01*
X0170486Y0224683D02*
X0170621Y0225883D01*
X0170621Y0226186D01*
X0160172Y0226186D01*
X0160172Y0215737D01*
X0160476Y0215737D01*
X0161675Y0215873D01*
X0162852Y0216141D01*
X0163992Y0216540D01*
X0165080Y0217064D01*
X0166102Y0217706D01*
X0167046Y0218459D01*
X0167899Y0219312D01*
X0168652Y0220256D01*
X0169294Y0221279D01*
X0169818Y0222366D01*
X0170217Y0223506D01*
X0170486Y0224683D01*
X0170547Y0225227D02*
X0233656Y0225227D01*
X0233657Y0225826D02*
X0170614Y0225826D01*
X0170621Y0226786D02*
X0170621Y0227090D01*
X0170486Y0228290D01*
X0170217Y0229467D01*
X0169818Y0230606D01*
X0169294Y0231694D01*
X0168652Y0232716D01*
X0167899Y0233660D01*
X0167046Y0234514D01*
X0166102Y0235266D01*
X0165080Y0235909D01*
X0163992Y0236432D01*
X0162852Y0236831D01*
X0161675Y0237100D01*
X0160476Y0237235D01*
X0160172Y0237235D01*
X0160172Y0226786D01*
X0170621Y0226786D01*
X0170621Y0227023D02*
X0233659Y0227023D01*
X0233660Y0227621D02*
X0170561Y0227621D01*
X0170494Y0228220D02*
X0233661Y0228220D01*
X0233662Y0228818D02*
X0170365Y0228818D01*
X0170228Y0229417D02*
X0233663Y0229417D01*
X0233663Y0230015D02*
X0212542Y0230015D01*
X0211844Y0229726D02*
X0215414Y0231204D01*
X0218146Y0233937D01*
X0219625Y0237507D01*
X0219625Y0241371D01*
X0218146Y0244941D01*
X0215414Y0247674D01*
X0211844Y0249152D01*
X0207979Y0249152D01*
X0204409Y0247674D01*
X0201677Y0244941D01*
X0200198Y0241371D01*
X0200198Y0237507D01*
X0201677Y0233937D01*
X0204409Y0231204D01*
X0207979Y0229726D01*
X0211844Y0229726D01*
X0213987Y0230614D02*
X0233664Y0230614D01*
X0233665Y0231212D02*
X0215421Y0231212D01*
X0216020Y0231811D02*
X0233666Y0231811D01*
X0233667Y0232409D02*
X0216618Y0232409D01*
X0217217Y0233008D02*
X0233668Y0233008D01*
X0233669Y0233606D02*
X0217815Y0233606D01*
X0218257Y0234205D02*
X0233670Y0234205D01*
X0233671Y0234803D02*
X0218505Y0234803D01*
X0218753Y0235402D02*
X0233672Y0235402D01*
X0233673Y0236000D02*
X0219001Y0236000D01*
X0219249Y0236599D02*
X0233673Y0236599D01*
X0233674Y0237197D02*
X0219497Y0237197D01*
X0219625Y0237796D02*
X0233675Y0237796D01*
X0233676Y0238394D02*
X0219625Y0238394D01*
X0219625Y0238993D02*
X0233677Y0238993D01*
X0233678Y0239591D02*
X0219625Y0239591D01*
X0219625Y0240190D02*
X0233679Y0240190D01*
X0233680Y0240788D02*
X0219625Y0240788D01*
X0219618Y0241387D02*
X0233681Y0241387D01*
X0233682Y0241985D02*
X0219370Y0241985D01*
X0219122Y0242584D02*
X0233683Y0242584D01*
X0233684Y0243182D02*
X0218875Y0243182D01*
X0218627Y0243781D02*
X0233684Y0243781D01*
X0233685Y0244379D02*
X0218379Y0244379D01*
X0218109Y0244978D02*
X0233686Y0244978D01*
X0233687Y0245576D02*
X0217511Y0245576D01*
X0216912Y0246175D02*
X0233688Y0246175D01*
X0233689Y0246773D02*
X0216314Y0246773D01*
X0215715Y0247372D02*
X0233690Y0247372D01*
X0233691Y0247970D02*
X0214697Y0247970D01*
X0213252Y0248569D02*
X0233692Y0248569D01*
X0233693Y0249167D02*
X0006179Y0249167D01*
X0006178Y0248569D02*
X0013657Y0248569D01*
X0015066Y0249152D02*
X0011496Y0247674D01*
X0008763Y0244941D01*
X0007285Y0241371D01*
X0007285Y0237507D01*
X0008763Y0233937D01*
X0011496Y0231204D01*
X0015066Y0229726D01*
X0018930Y0229726D01*
X0022500Y0231204D01*
X0025233Y0233937D01*
X0026711Y0237507D01*
X0026711Y0241371D01*
X0025233Y0244941D01*
X0022500Y0247674D01*
X0018930Y0249152D01*
X0015066Y0249152D01*
X0012212Y0247970D02*
X0006177Y0247970D01*
X0006176Y0247372D02*
X0011194Y0247372D01*
X0010596Y0246773D02*
X0006175Y0246773D01*
X0006174Y0246175D02*
X0009997Y0246175D01*
X0009399Y0245576D02*
X0006174Y0245576D01*
X0006173Y0244978D02*
X0008800Y0244978D01*
X0008531Y0244379D02*
X0006172Y0244379D01*
X0006171Y0243781D02*
X0008283Y0243781D01*
X0008035Y0243182D02*
X0006170Y0243182D01*
X0006169Y0242584D02*
X0007787Y0242584D01*
X0007539Y0241985D02*
X0006168Y0241985D01*
X0006167Y0241387D02*
X0007291Y0241387D01*
X0007285Y0240788D02*
X0006166Y0240788D01*
X0006165Y0240190D02*
X0007285Y0240190D01*
X0007285Y0239591D02*
X0006164Y0239591D01*
X0006163Y0238993D02*
X0007285Y0238993D01*
X0007285Y0238394D02*
X0006163Y0238394D01*
X0006162Y0237796D02*
X0007285Y0237796D01*
X0007413Y0237197D02*
X0006161Y0237197D01*
X0006160Y0236599D02*
X0007661Y0236599D01*
X0007909Y0236000D02*
X0006159Y0236000D01*
X0006158Y0235402D02*
X0008157Y0235402D01*
X0008405Y0234803D02*
X0006157Y0234803D01*
X0006156Y0234205D02*
X0008652Y0234205D01*
X0009094Y0233606D02*
X0006155Y0233606D01*
X0006154Y0233008D02*
X0009693Y0233008D01*
X0010291Y0232409D02*
X0006153Y0232409D01*
X0006153Y0231811D02*
X0010890Y0231811D01*
X0011488Y0231212D02*
X0006152Y0231212D01*
X0006151Y0230614D02*
X0012922Y0230614D01*
X0014367Y0230015D02*
X0006150Y0230015D01*
X0006149Y0229417D02*
X0149516Y0229417D01*
X0149527Y0229467D02*
X0149258Y0228290D01*
X0149123Y0227090D01*
X0149123Y0226786D01*
X0159572Y0226786D01*
X0159572Y0226186D01*
X0160172Y0226186D01*
X0160172Y0226786D01*
X0159572Y0226786D01*
X0159572Y0237235D01*
X0159268Y0237235D01*
X0158069Y0237100D01*
X0156892Y0236831D01*
X0155752Y0236432D01*
X0154664Y0235909D01*
X0153642Y0235266D01*
X0152698Y0234514D01*
X0151845Y0233660D01*
X0151092Y0232716D01*
X0150450Y0231694D01*
X0149926Y0230606D01*
X0149527Y0229467D01*
X0149719Y0230015D02*
X0019629Y0230015D01*
X0021074Y0230614D02*
X0149929Y0230614D01*
X0150218Y0231212D02*
X0022508Y0231212D01*
X0023106Y0231811D02*
X0150523Y0231811D01*
X0150899Y0232409D02*
X0023705Y0232409D01*
X0024303Y0233008D02*
X0151324Y0233008D01*
X0151802Y0233606D02*
X0024902Y0233606D01*
X0025344Y0234205D02*
X0152389Y0234205D01*
X0153061Y0234803D02*
X0025591Y0234803D01*
X0025839Y0235402D02*
X0153858Y0235402D01*
X0154855Y0236000D02*
X0026087Y0236000D01*
X0026335Y0236599D02*
X0156227Y0236599D01*
X0158933Y0237197D02*
X0026583Y0237197D01*
X0026711Y0237796D02*
X0200198Y0237796D01*
X0200198Y0238394D02*
X0026711Y0238394D01*
X0026711Y0238993D02*
X0200198Y0238993D01*
X0200198Y0239591D02*
X0026711Y0239591D01*
X0026711Y0240190D02*
X0200198Y0240190D01*
X0200198Y0240788D02*
X0026711Y0240788D01*
X0026705Y0241387D02*
X0200205Y0241387D01*
X0200452Y0241985D02*
X0026457Y0241985D01*
X0026209Y0242584D02*
X0200700Y0242584D01*
X0200948Y0243182D02*
X0025961Y0243182D01*
X0025713Y0243781D02*
X0201196Y0243781D01*
X0201444Y0244379D02*
X0025465Y0244379D01*
X0025196Y0244978D02*
X0201714Y0244978D01*
X0202312Y0245576D02*
X0024597Y0245576D01*
X0023999Y0246175D02*
X0202911Y0246175D01*
X0203509Y0246773D02*
X0023400Y0246773D01*
X0022802Y0247372D02*
X0204108Y0247372D01*
X0205126Y0247970D02*
X0021784Y0247970D01*
X0020339Y0248569D02*
X0206571Y0248569D01*
X0200326Y0237197D02*
X0160811Y0237197D01*
X0160172Y0237197D02*
X0159572Y0237197D01*
X0159572Y0236599D02*
X0160172Y0236599D01*
X0160172Y0236000D02*
X0159572Y0236000D01*
X0159572Y0235402D02*
X0160172Y0235402D01*
X0160172Y0234803D02*
X0159572Y0234803D01*
X0159572Y0234205D02*
X0160172Y0234205D01*
X0160172Y0233606D02*
X0159572Y0233606D01*
X0159572Y0233008D02*
X0160172Y0233008D01*
X0160172Y0232409D02*
X0159572Y0232409D01*
X0159572Y0231811D02*
X0160172Y0231811D01*
X0160172Y0231212D02*
X0159572Y0231212D01*
X0159572Y0230614D02*
X0160172Y0230614D01*
X0160172Y0230015D02*
X0159572Y0230015D01*
X0159572Y0229417D02*
X0160172Y0229417D01*
X0160172Y0228818D02*
X0159572Y0228818D01*
X0159572Y0228220D02*
X0160172Y0228220D01*
X0160172Y0227621D02*
X0159572Y0227621D01*
X0159572Y0227023D02*
X0160172Y0227023D01*
X0160172Y0226424D02*
X0233658Y0226424D01*
X0233653Y0223431D02*
X0217936Y0223431D01*
X0218535Y0222833D02*
X0233652Y0222833D01*
X0233652Y0222234D02*
X0219133Y0222234D01*
X0219423Y0221636D02*
X0233651Y0221636D01*
X0233650Y0221037D02*
X0219671Y0221037D01*
X0219905Y0220439D02*
X0233649Y0220439D01*
X0233648Y0219840D02*
X0219905Y0219840D01*
X0219905Y0219242D02*
X0233647Y0219242D01*
X0233646Y0218643D02*
X0219905Y0218643D01*
X0219658Y0218045D02*
X0233645Y0218045D01*
X0233644Y0217446D02*
X0219410Y0217446D01*
X0219101Y0216848D02*
X0233643Y0216848D01*
X0233642Y0216249D02*
X0218503Y0216249D01*
X0217895Y0215651D02*
X0233642Y0215651D01*
X0233641Y0215052D02*
X0216450Y0215052D01*
X0216949Y0213855D02*
X0233639Y0213855D01*
X0233638Y0213257D02*
X0218111Y0213257D01*
X0218709Y0212658D02*
X0233637Y0212658D01*
X0233636Y0212060D02*
X0219247Y0212060D01*
X0219495Y0211461D02*
X0233635Y0211461D01*
X0233634Y0210863D02*
X0219743Y0210863D01*
X0219905Y0210264D02*
X0233633Y0210264D01*
X0233632Y0209666D02*
X0219905Y0209666D01*
X0219905Y0209067D02*
X0233631Y0209067D01*
X0233631Y0208469D02*
X0219833Y0208469D01*
X0219585Y0207870D02*
X0233630Y0207870D01*
X0233629Y0207272D02*
X0219337Y0207272D01*
X0218927Y0206673D02*
X0233628Y0206673D01*
X0233627Y0206075D02*
X0218328Y0206075D01*
X0217473Y0205476D02*
X0233626Y0205476D01*
X0233625Y0204878D02*
X0170152Y0204878D01*
X0170221Y0204279D02*
X0233624Y0204279D01*
X0233623Y0203681D02*
X0217370Y0203681D01*
X0218285Y0203082D02*
X0233622Y0203082D01*
X0233621Y0202484D02*
X0218884Y0202484D01*
X0219320Y0201885D02*
X0233620Y0201885D01*
X0233620Y0201287D02*
X0219568Y0201287D01*
X0219816Y0200688D02*
X0233619Y0200688D01*
X0233618Y0200090D02*
X0219905Y0200090D01*
X0219905Y0199491D02*
X0233617Y0199491D01*
X0233616Y0198892D02*
X0219905Y0198892D01*
X0219761Y0198294D02*
X0233615Y0198294D01*
X0233614Y0197695D02*
X0219513Y0197695D01*
X0219265Y0197097D02*
X0233613Y0197097D01*
X0233612Y0196498D02*
X0218752Y0196498D01*
X0218153Y0195900D02*
X0233611Y0195900D01*
X0233592Y0183331D02*
X0218036Y0183331D01*
X0218635Y0182733D02*
X0233591Y0182733D01*
X0233590Y0182134D02*
X0219217Y0182134D01*
X0219465Y0181536D02*
X0233589Y0181536D01*
X0233589Y0180937D02*
X0219712Y0180937D01*
X0219905Y0180339D02*
X0233588Y0180339D01*
X0233587Y0179740D02*
X0219905Y0179740D01*
X0219905Y0179142D02*
X0233586Y0179142D01*
X0233585Y0178543D02*
X0219864Y0178543D01*
X0219616Y0177945D02*
X0233584Y0177945D01*
X0233583Y0177346D02*
X0219368Y0177346D01*
X0219001Y0176748D02*
X0233582Y0176748D01*
X0233581Y0176149D02*
X0218402Y0176149D01*
X0217653Y0175551D02*
X0233580Y0175551D01*
X0233578Y0173755D02*
X0217191Y0173755D01*
X0218211Y0173157D02*
X0233577Y0173157D01*
X0233576Y0172558D02*
X0218810Y0172558D01*
X0219289Y0171959D02*
X0233575Y0171959D01*
X0233574Y0171361D02*
X0219537Y0171361D01*
X0219785Y0170762D02*
X0233573Y0170762D01*
X0233572Y0170164D02*
X0219905Y0170164D01*
X0219905Y0169565D02*
X0233571Y0169565D01*
X0233570Y0168967D02*
X0219905Y0168967D01*
X0219792Y0168368D02*
X0233569Y0168368D01*
X0233568Y0167770D02*
X0219544Y0167770D01*
X0219296Y0167171D02*
X0233567Y0167171D01*
X0233567Y0166573D02*
X0218826Y0166573D01*
X0218228Y0165974D02*
X0233566Y0165974D01*
X0233565Y0165376D02*
X0217231Y0165376D01*
X0217613Y0163580D02*
X0233562Y0163580D01*
X0233561Y0162982D02*
X0218386Y0162982D01*
X0218984Y0162383D02*
X0233560Y0162383D01*
X0233559Y0161785D02*
X0219361Y0161785D01*
X0219609Y0161186D02*
X0233558Y0161186D01*
X0233557Y0160588D02*
X0219857Y0160588D01*
X0219905Y0159989D02*
X0233557Y0159989D01*
X0233556Y0159391D02*
X0219905Y0159391D01*
X0219905Y0158792D02*
X0233555Y0158792D01*
X0233554Y0158194D02*
X0219719Y0158194D01*
X0219471Y0157595D02*
X0233553Y0157595D01*
X0233552Y0156997D02*
X0219224Y0156997D01*
X0218652Y0156398D02*
X0233551Y0156398D01*
X0233550Y0155800D02*
X0218053Y0155800D01*
X0216809Y0155201D02*
X0233549Y0155201D01*
X0233548Y0154603D02*
X0006034Y0154603D01*
X0006030Y0151610D02*
X0067387Y0151610D01*
X0071383Y0151610D02*
X0071983Y0151610D01*
X0071983Y0151012D02*
X0071383Y0151012D01*
X0071383Y0150413D02*
X0071983Y0150413D01*
X0071983Y0149815D02*
X0071383Y0149815D01*
X0071383Y0149216D02*
X0071983Y0149216D01*
X0071983Y0148618D02*
X0071383Y0148618D01*
X0071383Y0146822D02*
X0071983Y0146822D01*
X0071983Y0146223D02*
X0071383Y0146223D01*
X0071383Y0145625D02*
X0071983Y0145625D01*
X0071983Y0145026D02*
X0071383Y0145026D01*
X0071383Y0144428D02*
X0071983Y0144428D01*
X0071983Y0143829D02*
X0071383Y0143829D01*
X0071383Y0143231D02*
X0071983Y0143231D01*
X0068211Y0143231D02*
X0049010Y0143231D01*
X0049955Y0143829D02*
X0066435Y0143829D01*
X0065684Y0144428D02*
X0050525Y0144428D01*
X0050925Y0145026D02*
X0065172Y0145026D01*
X0064817Y0145625D02*
X0051200Y0145625D01*
X0049373Y0140422D02*
X0047939Y0141016D01*
X0040388Y0141016D01*
X0038954Y0140422D01*
X0037857Y0139325D01*
X0037263Y0137892D01*
X0037263Y0136340D01*
X0037857Y0134907D01*
X0038954Y0133810D01*
X0040388Y0133216D01*
X0047939Y0133216D01*
X0049373Y0133810D01*
X0050470Y0134907D01*
X0051063Y0136340D01*
X0051063Y0137892D01*
X0050470Y0139325D01*
X0049373Y0140422D01*
X0049557Y0140238D02*
X0065896Y0140238D01*
X0065344Y0139640D02*
X0050155Y0139640D01*
X0050587Y0139041D02*
X0065096Y0139041D01*
X0064848Y0138443D02*
X0050835Y0138443D01*
X0051063Y0137844D02*
X0064783Y0137844D01*
X0064783Y0137246D02*
X0051063Y0137246D01*
X0051063Y0136647D02*
X0064819Y0136647D01*
X0065067Y0136049D02*
X0050943Y0136049D01*
X0050695Y0135450D02*
X0065315Y0135450D01*
X0065826Y0134852D02*
X0050414Y0134852D01*
X0049816Y0134253D02*
X0066424Y0134253D01*
X0067799Y0133655D02*
X0048998Y0133655D01*
X0047939Y0131016D02*
X0049373Y0130422D01*
X0050470Y0129325D01*
X0051063Y0127892D01*
X0051063Y0126340D01*
X0050470Y0124907D01*
X0049373Y0123810D01*
X0047939Y0123216D01*
X0040388Y0123216D01*
X0038954Y0123810D01*
X0037857Y0124907D01*
X0037263Y0126340D01*
X0037263Y0127892D01*
X0037857Y0129325D01*
X0038954Y0130422D01*
X0040388Y0131016D01*
X0047939Y0131016D01*
X0048794Y0130662D02*
X0066320Y0130662D01*
X0065721Y0130064D02*
X0049731Y0130064D01*
X0050330Y0129465D02*
X0065272Y0129465D01*
X0065024Y0128867D02*
X0050660Y0128867D01*
X0050908Y0128268D02*
X0064783Y0128268D01*
X0064783Y0127670D02*
X0051063Y0127670D01*
X0051063Y0127071D02*
X0064783Y0127071D01*
X0064891Y0126473D02*
X0051063Y0126473D01*
X0050870Y0125874D02*
X0065139Y0125874D01*
X0065402Y0125276D02*
X0050622Y0125276D01*
X0050240Y0124677D02*
X0066000Y0124677D01*
X0066776Y0124079D02*
X0049641Y0124079D01*
X0048576Y0123480D02*
X0202756Y0123480D01*
X0202124Y0122882D02*
X0005986Y0122882D01*
X0005987Y0123480D02*
X0039750Y0123480D01*
X0038686Y0124079D02*
X0005988Y0124079D01*
X0005989Y0124677D02*
X0038087Y0124677D01*
X0037704Y0125276D02*
X0005990Y0125276D01*
X0005991Y0125874D02*
X0037457Y0125874D01*
X0037263Y0126473D02*
X0005991Y0126473D01*
X0005992Y0127071D02*
X0037263Y0127071D01*
X0037263Y0127670D02*
X0005993Y0127670D01*
X0005994Y0128268D02*
X0037419Y0128268D01*
X0037667Y0128867D02*
X0005995Y0128867D01*
X0005996Y0129465D02*
X0037997Y0129465D01*
X0038596Y0130064D02*
X0005997Y0130064D01*
X0005998Y0130662D02*
X0039533Y0130662D01*
X0039329Y0133655D02*
X0006002Y0133655D01*
X0006003Y0134253D02*
X0038511Y0134253D01*
X0037912Y0134852D02*
X0006004Y0134852D01*
X0006005Y0135450D02*
X0037632Y0135450D01*
X0037384Y0136049D02*
X0006006Y0136049D01*
X0006007Y0136647D02*
X0037263Y0136647D01*
X0037263Y0137246D02*
X0006008Y0137246D01*
X0006009Y0137844D02*
X0037263Y0137844D01*
X0037492Y0138443D02*
X0006010Y0138443D01*
X0006011Y0139041D02*
X0037740Y0139041D01*
X0038172Y0139640D02*
X0006012Y0139640D01*
X0006012Y0140238D02*
X0038770Y0140238D01*
X0039955Y0140837D02*
X0006013Y0140837D01*
X0006023Y0147421D02*
X0036863Y0147421D01*
X0036863Y0147416D02*
X0043863Y0147416D01*
X0043863Y0151416D01*
X0040825Y0151416D01*
X0040156Y0151310D01*
X0039513Y0151101D01*
X0038910Y0150794D01*
X0038362Y0150396D01*
X0037884Y0149917D01*
X0037486Y0149370D01*
X0037178Y0148767D01*
X0036969Y0148123D01*
X0036863Y0147455D01*
X0036863Y0147416D01*
X0036953Y0148019D02*
X0006024Y0148019D01*
X0006025Y0148618D02*
X0037130Y0148618D01*
X0037407Y0149216D02*
X0006026Y0149216D01*
X0006027Y0149815D02*
X0037809Y0149815D01*
X0038386Y0150413D02*
X0006028Y0150413D01*
X0006029Y0151012D02*
X0039337Y0151012D01*
X0043863Y0151012D02*
X0044463Y0151012D01*
X0044463Y0150413D02*
X0043863Y0150413D01*
X0043863Y0149815D02*
X0044463Y0149815D01*
X0044463Y0149216D02*
X0043863Y0149216D01*
X0043863Y0148618D02*
X0044463Y0148618D01*
X0044463Y0148019D02*
X0043863Y0148019D01*
X0043863Y0147421D02*
X0044463Y0147421D01*
X0048372Y0140837D02*
X0066524Y0140837D01*
X0067547Y0131261D02*
X0005999Y0131261D01*
X0006000Y0131859D02*
X0201280Y0131859D01*
X0201700Y0132458D02*
X0006001Y0132458D01*
X0006002Y0133056D02*
X0202299Y0133056D01*
X0201526Y0122283D02*
X0005985Y0122283D01*
X0005984Y0121685D02*
X0201207Y0121685D01*
X0200959Y0121086D02*
X0005983Y0121086D01*
X0005982Y0120488D02*
X0200712Y0120488D01*
X0200705Y0119889D02*
X0005981Y0119889D01*
X0005980Y0119290D02*
X0200705Y0119290D01*
X0200705Y0118692D02*
X0005980Y0118692D01*
X0005979Y0118093D02*
X0200932Y0118093D01*
X0201180Y0117495D02*
X0005978Y0117495D01*
X0005977Y0116896D02*
X0201460Y0116896D01*
X0202059Y0116298D02*
X0005976Y0116298D01*
X0005975Y0115699D02*
X0202657Y0115699D01*
X0204043Y0115101D02*
X0005974Y0115101D01*
X0005973Y0114502D02*
X0233487Y0114502D01*
X0233486Y0113904D02*
X0216831Y0113904D01*
X0216567Y0115101D02*
X0233488Y0115101D01*
X0233489Y0115699D02*
X0217953Y0115699D01*
X0218551Y0116298D02*
X0233490Y0116298D01*
X0233491Y0116896D02*
X0219150Y0116896D01*
X0219430Y0117495D02*
X0233492Y0117495D01*
X0233493Y0118093D02*
X0219678Y0118093D01*
X0219905Y0118692D02*
X0233493Y0118692D01*
X0233494Y0119290D02*
X0219905Y0119290D01*
X0219905Y0119889D02*
X0233495Y0119889D01*
X0233496Y0120488D02*
X0219899Y0120488D01*
X0219651Y0121086D02*
X0233497Y0121086D01*
X0233498Y0121685D02*
X0219403Y0121685D01*
X0219085Y0122283D02*
X0233499Y0122283D01*
X0233500Y0122882D02*
X0218486Y0122882D01*
X0217855Y0123480D02*
X0233501Y0123480D01*
X0233485Y0113305D02*
X0218062Y0113305D01*
X0218661Y0112707D02*
X0233484Y0112707D01*
X0233483Y0112108D02*
X0219227Y0112108D01*
X0219475Y0111510D02*
X0233483Y0111510D01*
X0233482Y0110911D02*
X0219723Y0110911D01*
X0219905Y0110313D02*
X0233481Y0110313D01*
X0233480Y0109714D02*
X0219905Y0109714D01*
X0219905Y0109116D02*
X0233479Y0109116D01*
X0233478Y0108517D02*
X0219853Y0108517D01*
X0219605Y0107919D02*
X0233477Y0107919D01*
X0233476Y0107320D02*
X0219358Y0107320D01*
X0218975Y0106722D02*
X0233475Y0106722D01*
X0233474Y0106123D02*
X0218377Y0106123D01*
X0217591Y0105525D02*
X0233473Y0105525D01*
X0233472Y0104926D02*
X0166325Y0104926D01*
X0166611Y0104640D02*
X0165514Y0105737D01*
X0164081Y0106331D01*
X0156529Y0106331D01*
X0155096Y0105737D01*
X0153999Y0104640D01*
X0153405Y0103207D01*
X0153405Y0101655D01*
X0153999Y0100222D01*
X0155096Y0099125D01*
X0156529Y0098531D01*
X0164081Y0098531D01*
X0165514Y0099125D01*
X0166611Y0100222D01*
X0167205Y0101655D01*
X0167205Y0103207D01*
X0166611Y0104640D01*
X0166741Y0104328D02*
X0233472Y0104328D01*
X0233471Y0103729D02*
X0217253Y0103729D01*
X0218237Y0103131D02*
X0233470Y0103131D01*
X0233469Y0102532D02*
X0218835Y0102532D01*
X0219300Y0101934D02*
X0233468Y0101934D01*
X0233467Y0101335D02*
X0219548Y0101335D01*
X0219796Y0100737D02*
X0233466Y0100737D01*
X0233465Y0100138D02*
X0219905Y0100138D01*
X0219905Y0099540D02*
X0233464Y0099540D01*
X0233463Y0098941D02*
X0219905Y0098941D01*
X0219781Y0098343D02*
X0233462Y0098343D01*
X0233462Y0097744D02*
X0219533Y0097744D01*
X0219285Y0097146D02*
X0233461Y0097146D01*
X0233460Y0096547D02*
X0218800Y0096547D01*
X0218202Y0095949D02*
X0233459Y0095949D01*
X0233458Y0095350D02*
X0217169Y0095350D01*
X0216230Y0094153D02*
X0233456Y0094153D01*
X0233455Y0093555D02*
X0217675Y0093555D01*
X0218412Y0092956D02*
X0233454Y0092956D01*
X0233453Y0092357D02*
X0219010Y0092357D01*
X0219372Y0091759D02*
X0233452Y0091759D01*
X0233451Y0091160D02*
X0219620Y0091160D01*
X0219868Y0090562D02*
X0233451Y0090562D01*
X0233450Y0089963D02*
X0219905Y0089963D01*
X0219905Y0089365D02*
X0233449Y0089365D01*
X0233448Y0088766D02*
X0219905Y0088766D01*
X0219709Y0088168D02*
X0233447Y0088168D01*
X0233446Y0087569D02*
X0219461Y0087569D01*
X0219213Y0086971D02*
X0233445Y0086971D01*
X0233444Y0086372D02*
X0218626Y0086372D01*
X0218027Y0085774D02*
X0233443Y0085774D01*
X0233442Y0085175D02*
X0216747Y0085175D01*
X0216652Y0083978D02*
X0233440Y0083978D01*
X0233440Y0083380D02*
X0217988Y0083380D01*
X0218586Y0082781D02*
X0233439Y0082781D01*
X0233438Y0082183D02*
X0219185Y0082183D01*
X0219444Y0081584D02*
X0233437Y0081584D01*
X0233436Y0080986D02*
X0219692Y0080986D01*
X0219905Y0080387D02*
X0233435Y0080387D01*
X0233434Y0079789D02*
X0219905Y0079789D01*
X0219905Y0079190D02*
X0233433Y0079190D01*
X0233432Y0078592D02*
X0219884Y0078592D01*
X0219636Y0077993D02*
X0233431Y0077993D01*
X0233430Y0077395D02*
X0219388Y0077395D01*
X0219050Y0076796D02*
X0233430Y0076796D01*
X0233429Y0076198D02*
X0218451Y0076198D01*
X0217770Y0075599D02*
X0233428Y0075599D01*
X0233427Y0075001D02*
X0216325Y0075001D01*
X0217073Y0073804D02*
X0233425Y0073804D01*
X0233426Y0074402D02*
X0005912Y0074402D01*
X0005911Y0073804D02*
X0203537Y0073804D01*
X0202448Y0073205D02*
X0005910Y0073205D01*
X0005909Y0072607D02*
X0201849Y0072607D01*
X0201341Y0072008D02*
X0120921Y0072008D01*
X0120802Y0072057D02*
X0114808Y0072057D01*
X0113889Y0071676D01*
X0113186Y0070973D01*
X0104270Y0062057D01*
X0079808Y0062057D01*
X0079540Y0061946D01*
X0079316Y0061946D01*
X0079157Y0061787D01*
X0078889Y0061676D01*
X0078186Y0060973D01*
X0078075Y0060705D01*
X0077916Y0060547D01*
X0077916Y0060322D01*
X0077805Y0060054D01*
X0077805Y0059060D01*
X0077916Y0058792D01*
X0077916Y0058568D01*
X0078075Y0058409D01*
X0078186Y0058141D01*
X0078889Y0057438D01*
X0079157Y0057327D01*
X0079316Y0057168D01*
X0079540Y0057168D01*
X0079808Y0057057D01*
X0105802Y0057057D01*
X0106721Y0057438D01*
X0116341Y0067057D01*
X0120802Y0067057D01*
X0121070Y0067168D01*
X0121295Y0067168D01*
X0121453Y0067327D01*
X0121721Y0067438D01*
X0122425Y0068141D01*
X0122536Y0068409D01*
X0122694Y0068568D01*
X0122694Y0068792D01*
X0122805Y0069060D01*
X0122805Y0070054D01*
X0122694Y0070322D01*
X0122694Y0070547D01*
X0122536Y0070705D01*
X0122425Y0070973D01*
X0121721Y0071676D01*
X0121453Y0071788D01*
X0121295Y0071946D01*
X0121070Y0071946D01*
X0120802Y0072057D01*
X0121988Y0071410D02*
X0201093Y0071410D01*
X0200846Y0070811D02*
X0122492Y0070811D01*
X0122740Y0070213D02*
X0200705Y0070213D01*
X0200705Y0069614D02*
X0122805Y0069614D01*
X0122787Y0069016D02*
X0200705Y0069016D01*
X0200798Y0068417D02*
X0122544Y0068417D01*
X0122102Y0067819D02*
X0201046Y0067819D01*
X0201294Y0067220D02*
X0121347Y0067220D01*
X0115905Y0066621D02*
X0201735Y0066621D01*
X0202334Y0066023D02*
X0115307Y0066023D01*
X0114708Y0065424D02*
X0203262Y0065424D01*
X0203115Y0063629D02*
X0112912Y0063629D01*
X0112314Y0063030D02*
X0202273Y0063030D01*
X0201675Y0062432D02*
X0111715Y0062432D01*
X0111117Y0061833D02*
X0201269Y0061833D01*
X0201021Y0061235D02*
X0110518Y0061235D01*
X0109920Y0060636D02*
X0200773Y0060636D01*
X0200705Y0060038D02*
X0109321Y0060038D01*
X0108723Y0059439D02*
X0200705Y0059439D01*
X0200705Y0058841D02*
X0108124Y0058841D01*
X0107526Y0058242D02*
X0200871Y0058242D01*
X0201119Y0057644D02*
X0172168Y0057644D01*
X0171755Y0058057D02*
X0168855Y0058057D01*
X0166805Y0056007D01*
X0166805Y0053107D01*
X0168855Y0051057D01*
X0171755Y0051057D01*
X0173805Y0053107D01*
X0173805Y0056007D01*
X0171755Y0058057D01*
X0172767Y0057045D02*
X0201367Y0057045D01*
X0201910Y0056447D02*
X0173365Y0056447D01*
X0173805Y0055848D02*
X0202509Y0055848D01*
X0203683Y0055250D02*
X0173805Y0055250D01*
X0173805Y0054651D02*
X0233396Y0054651D01*
X0233395Y0054053D02*
X0216472Y0054053D01*
X0216927Y0055250D02*
X0233397Y0055250D01*
X0233398Y0055848D02*
X0218102Y0055848D01*
X0218700Y0056447D02*
X0233398Y0056447D01*
X0233399Y0057045D02*
X0219244Y0057045D01*
X0219492Y0057644D02*
X0233400Y0057644D01*
X0233401Y0058242D02*
X0219740Y0058242D01*
X0219905Y0058841D02*
X0233402Y0058841D01*
X0233403Y0059439D02*
X0219905Y0059439D01*
X0219905Y0060038D02*
X0233404Y0060038D01*
X0233405Y0060636D02*
X0219837Y0060636D01*
X0219589Y0061235D02*
X0233406Y0061235D01*
X0233407Y0061833D02*
X0219341Y0061833D01*
X0218936Y0062432D02*
X0233408Y0062432D01*
X0233409Y0063030D02*
X0218337Y0063030D01*
X0217495Y0063629D02*
X0233409Y0063629D01*
X0233410Y0064227D02*
X0113511Y0064227D01*
X0114110Y0064826D02*
X0233411Y0064826D01*
X0233412Y0065424D02*
X0217348Y0065424D01*
X0218276Y0066023D02*
X0233413Y0066023D01*
X0233414Y0066621D02*
X0218875Y0066621D01*
X0219316Y0067220D02*
X0233415Y0067220D01*
X0233416Y0067819D02*
X0219564Y0067819D01*
X0219812Y0068417D02*
X0233417Y0068417D01*
X0233418Y0069016D02*
X0219905Y0069016D01*
X0219905Y0069614D02*
X0233419Y0069614D01*
X0233419Y0070213D02*
X0219905Y0070213D01*
X0219765Y0070811D02*
X0233420Y0070811D01*
X0233421Y0071410D02*
X0219517Y0071410D01*
X0219269Y0072008D02*
X0233422Y0072008D01*
X0233423Y0072607D02*
X0218761Y0072607D01*
X0218162Y0073205D02*
X0233424Y0073205D01*
X0233441Y0084577D02*
X0166638Y0084577D01*
X0166611Y0084640D02*
X0165514Y0085737D01*
X0164081Y0086331D01*
X0156529Y0086331D01*
X0155096Y0085737D01*
X0153999Y0084640D01*
X0153405Y0083207D01*
X0153405Y0081655D01*
X0153999Y0080222D01*
X0155096Y0079125D01*
X0156529Y0078531D01*
X0164081Y0078531D01*
X0165514Y0079125D01*
X0166611Y0080222D01*
X0167205Y0081655D01*
X0167205Y0083207D01*
X0166611Y0084640D01*
X0166886Y0083978D02*
X0203959Y0083978D01*
X0203863Y0085175D02*
X0166076Y0085175D01*
X0165426Y0085774D02*
X0202583Y0085774D01*
X0201984Y0086372D02*
X0109788Y0086372D01*
X0109788Y0085869D02*
X0109788Y0092222D01*
X0109270Y0093471D01*
X0108314Y0094428D01*
X0107064Y0094945D01*
X0105711Y0094945D01*
X0104462Y0094428D01*
X0103505Y0093471D01*
X0103494Y0093444D01*
X0103483Y0093471D01*
X0102526Y0094428D01*
X0101277Y0094945D01*
X0099924Y0094945D01*
X0098674Y0094428D01*
X0097718Y0093471D01*
X0097510Y0092969D01*
X0097302Y0093471D01*
X0096345Y0094428D01*
X0095096Y0094945D01*
X0093743Y0094945D01*
X0092493Y0094428D01*
X0091537Y0093471D01*
X0091388Y0093111D01*
X0091239Y0093471D01*
X0090282Y0094428D01*
X0089033Y0094945D01*
X0087680Y0094945D01*
X0086430Y0094428D01*
X0085474Y0093471D01*
X0084956Y0092222D01*
X0084956Y0085869D01*
X0085474Y0084619D01*
X0086430Y0083663D01*
X0087680Y0083145D01*
X0089033Y0083145D01*
X0090282Y0083663D01*
X0091239Y0084619D01*
X0091388Y0084979D01*
X0091537Y0084619D01*
X0092493Y0083663D01*
X0093743Y0083145D01*
X0095096Y0083145D01*
X0096345Y0083663D01*
X0097302Y0084619D01*
X0097510Y0085122D01*
X0097718Y0084619D01*
X0098674Y0083663D01*
X0099924Y0083145D01*
X0101277Y0083145D01*
X0102526Y0083663D01*
X0103483Y0084619D01*
X0103494Y0084647D01*
X0103505Y0084619D01*
X0104462Y0083663D01*
X0105711Y0083145D01*
X0107064Y0083145D01*
X0108314Y0083663D01*
X0109270Y0084619D01*
X0109788Y0085869D01*
X0109748Y0085774D02*
X0155184Y0085774D01*
X0154534Y0085175D02*
X0109500Y0085175D01*
X0109228Y0084577D02*
X0153973Y0084577D01*
X0153725Y0083978D02*
X0108629Y0083978D01*
X0107630Y0083380D02*
X0153477Y0083380D01*
X0153405Y0082781D02*
X0005925Y0082781D01*
X0005924Y0082183D02*
X0153405Y0082183D01*
X0153435Y0081584D02*
X0005923Y0081584D01*
X0005922Y0080986D02*
X0153682Y0080986D01*
X0153930Y0080387D02*
X0005921Y0080387D01*
X0005920Y0079789D02*
X0154432Y0079789D01*
X0155031Y0079190D02*
X0005919Y0079190D01*
X0005918Y0078592D02*
X0156383Y0078592D01*
X0164227Y0078592D02*
X0200726Y0078592D01*
X0200705Y0079190D02*
X0165580Y0079190D01*
X0166178Y0079789D02*
X0200705Y0079789D01*
X0200705Y0080387D02*
X0166680Y0080387D01*
X0166928Y0080986D02*
X0200918Y0080986D01*
X0201166Y0081584D02*
X0167176Y0081584D01*
X0167205Y0082183D02*
X0201425Y0082183D01*
X0202024Y0082781D02*
X0167205Y0082781D01*
X0167133Y0083380D02*
X0202622Y0083380D01*
X0201397Y0086971D02*
X0109788Y0086971D01*
X0109788Y0087569D02*
X0201149Y0087569D01*
X0200902Y0088168D02*
X0109788Y0088168D01*
X0109788Y0088766D02*
X0155961Y0088766D01*
X0156529Y0088531D02*
X0155096Y0089125D01*
X0153999Y0090222D01*
X0153405Y0091655D01*
X0153405Y0093207D01*
X0153999Y0094640D01*
X0155096Y0095737D01*
X0156529Y0096331D01*
X0164081Y0096331D01*
X0165514Y0095737D01*
X0166611Y0094640D01*
X0167205Y0093207D01*
X0167205Y0091655D01*
X0166611Y0090222D01*
X0165514Y0089125D01*
X0164081Y0088531D01*
X0156529Y0088531D01*
X0154856Y0089365D02*
X0109788Y0089365D01*
X0109788Y0089963D02*
X0154257Y0089963D01*
X0153858Y0090562D02*
X0109788Y0090562D01*
X0109788Y0091160D02*
X0153610Y0091160D01*
X0153405Y0091759D02*
X0109788Y0091759D01*
X0109731Y0092357D02*
X0153405Y0092357D01*
X0153405Y0092956D02*
X0109484Y0092956D01*
X0109187Y0093555D02*
X0153549Y0093555D01*
X0153797Y0094153D02*
X0108588Y0094153D01*
X0107532Y0094752D02*
X0154110Y0094752D01*
X0154709Y0095350D02*
X0005944Y0095350D01*
X0005943Y0094752D02*
X0087212Y0094752D01*
X0086156Y0094153D02*
X0005942Y0094153D01*
X0005941Y0093555D02*
X0085557Y0093555D01*
X0085261Y0092956D02*
X0005940Y0092956D01*
X0005939Y0092357D02*
X0085013Y0092357D01*
X0084956Y0091759D02*
X0005938Y0091759D01*
X0005937Y0091160D02*
X0084956Y0091160D01*
X0084956Y0090562D02*
X0005937Y0090562D01*
X0005936Y0089963D02*
X0084956Y0089963D01*
X0084956Y0089365D02*
X0005935Y0089365D01*
X0005934Y0088766D02*
X0084956Y0088766D01*
X0084956Y0088168D02*
X0005933Y0088168D01*
X0005932Y0087569D02*
X0084956Y0087569D01*
X0084956Y0086971D02*
X0005931Y0086971D01*
X0005930Y0086372D02*
X0084956Y0086372D01*
X0084996Y0085774D02*
X0005929Y0085774D01*
X0005928Y0085175D02*
X0085244Y0085175D01*
X0085516Y0084577D02*
X0005927Y0084577D01*
X0005926Y0083978D02*
X0086115Y0083978D01*
X0087114Y0083380D02*
X0005926Y0083380D01*
X0005917Y0077993D02*
X0200974Y0077993D01*
X0201222Y0077395D02*
X0005916Y0077395D01*
X0005915Y0076796D02*
X0201561Y0076796D01*
X0202159Y0076198D02*
X0005915Y0076198D01*
X0005914Y0075599D02*
X0202840Y0075599D01*
X0204285Y0075001D02*
X0005913Y0075001D01*
X0005908Y0072008D02*
X0114690Y0072008D01*
X0113622Y0071410D02*
X0005907Y0071410D01*
X0005906Y0070811D02*
X0113024Y0070811D01*
X0112425Y0070213D02*
X0005905Y0070213D01*
X0005905Y0069614D02*
X0111827Y0069614D01*
X0111228Y0069016D02*
X0005904Y0069016D01*
X0005903Y0068417D02*
X0110630Y0068417D01*
X0110031Y0067819D02*
X0005902Y0067819D01*
X0005901Y0067220D02*
X0109433Y0067220D01*
X0108834Y0066621D02*
X0005900Y0066621D01*
X0005899Y0066023D02*
X0108235Y0066023D01*
X0107637Y0065424D02*
X0005898Y0065424D01*
X0005897Y0064826D02*
X0107038Y0064826D01*
X0106440Y0064227D02*
X0005896Y0064227D01*
X0005895Y0063629D02*
X0105841Y0063629D01*
X0105243Y0063030D02*
X0005894Y0063030D01*
X0005894Y0062432D02*
X0104644Y0062432D01*
X0106927Y0057644D02*
X0118442Y0057644D01*
X0118855Y0058057D02*
X0116805Y0056007D01*
X0116805Y0053107D01*
X0118855Y0051057D01*
X0121755Y0051057D01*
X0123805Y0053107D01*
X0123805Y0056007D01*
X0121755Y0058057D01*
X0118855Y0058057D01*
X0117844Y0057045D02*
X0067767Y0057045D01*
X0068365Y0056447D02*
X0117245Y0056447D01*
X0116805Y0055848D02*
X0068805Y0055848D01*
X0068805Y0056007D02*
X0066755Y0058057D01*
X0063855Y0058057D01*
X0061805Y0056007D01*
X0061805Y0053107D01*
X0063855Y0051057D01*
X0066755Y0051057D01*
X0068805Y0053107D01*
X0068805Y0056007D01*
X0068805Y0055250D02*
X0116805Y0055250D01*
X0116805Y0054651D02*
X0068805Y0054651D01*
X0068805Y0054053D02*
X0116805Y0054053D01*
X0116805Y0053454D02*
X0068805Y0053454D01*
X0068554Y0052856D02*
X0117057Y0052856D01*
X0117655Y0052257D02*
X0067955Y0052257D01*
X0067356Y0051659D02*
X0118254Y0051659D01*
X0118852Y0051060D02*
X0066758Y0051060D01*
X0063852Y0051060D02*
X0005876Y0051060D01*
X0005875Y0050462D02*
X0200705Y0050462D01*
X0200705Y0049863D02*
X0005874Y0049863D01*
X0005873Y0049265D02*
X0200705Y0049265D01*
X0200705Y0048666D02*
X0005872Y0048666D01*
X0005872Y0048068D02*
X0200943Y0048068D01*
X0201191Y0047469D02*
X0149943Y0047469D01*
X0149888Y0047524D02*
X0148601Y0048057D01*
X0142009Y0048057D01*
X0140723Y0047524D01*
X0139738Y0046540D01*
X0139205Y0045253D01*
X0139205Y0043861D01*
X0139738Y0042574D01*
X0140723Y0041590D01*
X0142009Y0041057D01*
X0148601Y0041057D01*
X0149888Y0041590D01*
X0150872Y0042574D01*
X0151405Y0043861D01*
X0151405Y0045253D01*
X0150872Y0046540D01*
X0149888Y0047524D01*
X0150541Y0046871D02*
X0201486Y0046871D01*
X0202085Y0046272D02*
X0150983Y0046272D01*
X0151231Y0045674D02*
X0202683Y0045674D01*
X0204105Y0045075D02*
X0151405Y0045075D01*
X0151405Y0044477D02*
X0233380Y0044477D01*
X0233381Y0045075D02*
X0216505Y0045075D01*
X0216894Y0043878D02*
X0233379Y0043878D01*
X0233378Y0043280D02*
X0218088Y0043280D01*
X0218687Y0042681D02*
X0233377Y0042681D01*
X0233377Y0042083D02*
X0219238Y0042083D01*
X0219486Y0041484D02*
X0233376Y0041484D01*
X0233375Y0040886D02*
X0219734Y0040886D01*
X0219905Y0040287D02*
X0233374Y0040287D01*
X0233373Y0039688D02*
X0219905Y0039688D01*
X0219905Y0039090D02*
X0233372Y0039090D01*
X0233371Y0038491D02*
X0219843Y0038491D01*
X0219595Y0037893D02*
X0233370Y0037893D01*
X0233369Y0037294D02*
X0219347Y0037294D01*
X0218949Y0036696D02*
X0233368Y0036696D01*
X0233367Y0036097D02*
X0218351Y0036097D01*
X0217528Y0035499D02*
X0233366Y0035499D01*
X0233366Y0034900D02*
X0173805Y0034900D01*
X0173805Y0034302D02*
X0233365Y0034302D01*
X0233364Y0033703D02*
X0217315Y0033703D01*
X0218263Y0033105D02*
X0233363Y0033105D01*
X0233362Y0032506D02*
X0218861Y0032506D01*
X0219310Y0031908D02*
X0233361Y0031908D01*
X0233360Y0031309D02*
X0219558Y0031309D01*
X0219806Y0030711D02*
X0233359Y0030711D01*
X0233358Y0030112D02*
X0219905Y0030112D01*
X0219905Y0029514D02*
X0233357Y0029514D01*
X0233356Y0028915D02*
X0219905Y0028915D01*
X0219770Y0028317D02*
X0233356Y0028317D01*
X0233355Y0027718D02*
X0219522Y0027718D01*
X0219275Y0027120D02*
X0233354Y0027120D01*
X0233353Y0026521D02*
X0218775Y0026521D01*
X0218176Y0025923D02*
X0233352Y0025923D01*
X0233351Y0025324D02*
X0217106Y0025324D01*
X0206834Y0019938D02*
X0020076Y0019938D01*
X0021521Y0019339D02*
X0205389Y0019339D01*
X0204216Y0018741D02*
X0022693Y0018741D01*
X0023292Y0018142D02*
X0203618Y0018142D01*
X0203019Y0017544D02*
X0023890Y0017544D01*
X0024489Y0016945D02*
X0202421Y0016945D01*
X0201822Y0016347D02*
X0025087Y0016347D01*
X0025420Y0015748D02*
X0201489Y0015748D01*
X0201241Y0015150D02*
X0025668Y0015150D01*
X0025916Y0014551D02*
X0200993Y0014551D01*
X0200745Y0013952D02*
X0026164Y0013952D01*
X0026412Y0013354D02*
X0200498Y0013354D01*
X0200250Y0012755D02*
X0026660Y0012755D01*
X0026711Y0012157D02*
X0200198Y0012157D01*
X0200198Y0011558D02*
X0026711Y0011558D01*
X0026711Y0010960D02*
X0200198Y0010960D01*
X0200198Y0010361D02*
X0026711Y0010361D01*
X0026711Y0009763D02*
X0200198Y0009763D01*
X0200198Y0009164D02*
X0026711Y0009164D01*
X0026628Y0008566D02*
X0200281Y0008566D01*
X0200529Y0007967D02*
X0026380Y0007967D01*
X0026132Y0007369D02*
X0200777Y0007369D01*
X0201025Y0006770D02*
X0025884Y0006770D01*
X0025637Y0006172D02*
X0201273Y0006172D01*
X0200705Y0029514D02*
X0005843Y0029514D01*
X0005844Y0030112D02*
X0200705Y0030112D01*
X0200804Y0030711D02*
X0005845Y0030711D01*
X0005846Y0031309D02*
X0036400Y0031309D01*
X0037009Y0031057D02*
X0043601Y0031057D01*
X0044888Y0031590D01*
X0045872Y0032574D01*
X0046405Y0033861D01*
X0046405Y0035253D01*
X0045872Y0036540D01*
X0044888Y0037524D01*
X0043601Y0038057D01*
X0037009Y0038057D01*
X0035723Y0037524D01*
X0034738Y0036540D01*
X0034205Y0035253D01*
X0034205Y0033861D01*
X0034738Y0032574D01*
X0035723Y0031590D01*
X0037009Y0031057D01*
X0035405Y0031908D02*
X0005847Y0031908D01*
X0005848Y0032506D02*
X0034806Y0032506D01*
X0034518Y0033105D02*
X0005849Y0033105D01*
X0005850Y0033703D02*
X0034270Y0033703D01*
X0034205Y0034302D02*
X0005851Y0034302D01*
X0005851Y0034900D02*
X0034205Y0034900D01*
X0034307Y0035499D02*
X0005852Y0035499D01*
X0005853Y0036097D02*
X0034555Y0036097D01*
X0034894Y0036696D02*
X0005854Y0036696D01*
X0005855Y0037294D02*
X0035493Y0037294D01*
X0036613Y0037893D02*
X0005856Y0037893D01*
X0005857Y0038491D02*
X0200767Y0038491D01*
X0200705Y0039090D02*
X0005858Y0039090D01*
X0005859Y0039688D02*
X0200705Y0039688D01*
X0200705Y0040287D02*
X0005860Y0040287D01*
X0005861Y0040886D02*
X0200876Y0040886D01*
X0201124Y0041484D02*
X0149632Y0041484D01*
X0150380Y0042083D02*
X0201372Y0042083D01*
X0201924Y0042681D02*
X0150916Y0042681D01*
X0151164Y0043280D02*
X0202522Y0043280D01*
X0203717Y0043878D02*
X0151405Y0043878D01*
X0148998Y0037893D02*
X0168691Y0037893D01*
X0168855Y0038057D02*
X0166805Y0036007D01*
X0166805Y0033107D01*
X0168855Y0031057D01*
X0171755Y0031057D01*
X0173805Y0033107D01*
X0173805Y0036007D01*
X0171755Y0038057D01*
X0168855Y0038057D01*
X0168093Y0037294D02*
X0150117Y0037294D01*
X0149888Y0037524D02*
X0148601Y0038057D01*
X0142009Y0038057D01*
X0140723Y0037524D01*
X0139738Y0036540D01*
X0139205Y0035253D01*
X0139205Y0033861D01*
X0139738Y0032574D01*
X0140723Y0031590D01*
X0142009Y0031057D01*
X0148601Y0031057D01*
X0149888Y0031590D01*
X0150872Y0032574D01*
X0151405Y0033861D01*
X0151405Y0035253D01*
X0150872Y0036540D01*
X0149888Y0037524D01*
X0150716Y0036696D02*
X0167494Y0036696D01*
X0166896Y0036097D02*
X0151055Y0036097D01*
X0151303Y0035499D02*
X0166805Y0035499D01*
X0166805Y0034900D02*
X0151405Y0034900D01*
X0151405Y0034302D02*
X0166805Y0034302D01*
X0166805Y0033703D02*
X0151340Y0033703D01*
X0151092Y0033105D02*
X0166808Y0033105D01*
X0167406Y0032506D02*
X0150804Y0032506D01*
X0150206Y0031908D02*
X0168005Y0031908D01*
X0168603Y0031309D02*
X0149210Y0031309D01*
X0145605Y0028317D02*
X0145005Y0028317D01*
X0145005Y0027718D02*
X0145605Y0027718D01*
X0145605Y0027120D02*
X0145005Y0027120D01*
X0145005Y0026521D02*
X0145605Y0026521D01*
X0145605Y0025923D02*
X0145005Y0025923D01*
X0145005Y0024127D02*
X0145605Y0024127D01*
X0145605Y0023529D02*
X0145005Y0023529D01*
X0145005Y0022930D02*
X0145605Y0022930D01*
X0145605Y0022332D02*
X0145005Y0022332D01*
X0145005Y0021733D02*
X0145605Y0021733D01*
X0145605Y0021135D02*
X0145005Y0021135D01*
X0140807Y0021135D02*
X0099803Y0021135D01*
X0100597Y0021733D02*
X0140014Y0021733D01*
X0139502Y0022332D02*
X0101109Y0022332D01*
X0101453Y0022930D02*
X0139158Y0022930D01*
X0138933Y0023529D02*
X0101677Y0023529D01*
X0101796Y0024127D02*
X0138814Y0024127D01*
X0138881Y0025324D02*
X0101729Y0025324D01*
X0101561Y0025923D02*
X0139049Y0025923D01*
X0139327Y0026521D02*
X0101283Y0026521D01*
X0100858Y0027120D02*
X0139752Y0027120D01*
X0140416Y0027718D02*
X0100194Y0027718D01*
X0098995Y0028317D02*
X0141616Y0028317D01*
X0141400Y0031309D02*
X0122007Y0031309D01*
X0121755Y0031057D02*
X0118855Y0031057D01*
X0116805Y0033107D01*
X0116805Y0036007D01*
X0118855Y0038057D01*
X0121755Y0038057D01*
X0123805Y0036007D01*
X0123805Y0033107D01*
X0121755Y0031057D01*
X0122606Y0031908D02*
X0140405Y0031908D01*
X0139806Y0032506D02*
X0123204Y0032506D01*
X0123803Y0033105D02*
X0139518Y0033105D01*
X0139270Y0033703D02*
X0123805Y0033703D01*
X0123805Y0034302D02*
X0139205Y0034302D01*
X0139205Y0034900D02*
X0123805Y0034900D01*
X0123805Y0035499D02*
X0139307Y0035499D01*
X0139555Y0036097D02*
X0123715Y0036097D01*
X0123116Y0036696D02*
X0139894Y0036696D01*
X0140493Y0037294D02*
X0122517Y0037294D01*
X0121919Y0037893D02*
X0141613Y0037893D01*
X0140978Y0041484D02*
X0099632Y0041484D01*
X0099888Y0041590D02*
X0100872Y0042574D01*
X0101405Y0043861D01*
X0101405Y0045253D01*
X0100872Y0046540D01*
X0099888Y0047524D01*
X0098601Y0048057D01*
X0092009Y0048057D01*
X0090723Y0047524D01*
X0089738Y0046540D01*
X0089205Y0045253D01*
X0089205Y0043861D01*
X0089738Y0042574D01*
X0090723Y0041590D01*
X0092009Y0041057D01*
X0098601Y0041057D01*
X0099888Y0041590D01*
X0100380Y0042083D02*
X0140230Y0042083D01*
X0139694Y0042681D02*
X0100916Y0042681D01*
X0101164Y0043280D02*
X0139446Y0043280D01*
X0139205Y0043878D02*
X0101405Y0043878D01*
X0101405Y0044477D02*
X0139205Y0044477D01*
X0139205Y0045075D02*
X0101405Y0045075D01*
X0101231Y0045674D02*
X0139379Y0045674D01*
X0139627Y0046272D02*
X0100983Y0046272D01*
X0100541Y0046871D02*
X0140069Y0046871D01*
X0140667Y0047469D02*
X0099943Y0047469D01*
X0090667Y0047469D02*
X0044943Y0047469D01*
X0044888Y0047524D02*
X0043601Y0048057D01*
X0037009Y0048057D01*
X0035723Y0047524D01*
X0034738Y0046540D01*
X0034205Y0045253D01*
X0034205Y0043861D01*
X0034738Y0042574D01*
X0035723Y0041590D01*
X0037009Y0041057D01*
X0043601Y0041057D01*
X0044888Y0041590D01*
X0045872Y0042574D01*
X0046405Y0043861D01*
X0046405Y0045253D01*
X0045872Y0046540D01*
X0044888Y0047524D01*
X0045541Y0046871D02*
X0090069Y0046871D01*
X0089627Y0046272D02*
X0045983Y0046272D01*
X0046231Y0045674D02*
X0089379Y0045674D01*
X0089205Y0045075D02*
X0046405Y0045075D01*
X0046405Y0044477D02*
X0089205Y0044477D01*
X0089205Y0043878D02*
X0046405Y0043878D01*
X0046164Y0043280D02*
X0089446Y0043280D01*
X0089694Y0042681D02*
X0045916Y0042681D01*
X0045380Y0042083D02*
X0090230Y0042083D01*
X0090978Y0041484D02*
X0044632Y0041484D01*
X0043998Y0037893D02*
X0063691Y0037893D01*
X0063855Y0038057D02*
X0061805Y0036007D01*
X0061805Y0033107D01*
X0063855Y0031057D01*
X0066755Y0031057D01*
X0068805Y0033107D01*
X0068805Y0036007D01*
X0066755Y0038057D01*
X0063855Y0038057D01*
X0063093Y0037294D02*
X0045117Y0037294D01*
X0045716Y0036696D02*
X0062494Y0036696D01*
X0061896Y0036097D02*
X0046055Y0036097D01*
X0046303Y0035499D02*
X0061805Y0035499D01*
X0061805Y0034900D02*
X0046405Y0034900D01*
X0046405Y0034302D02*
X0061805Y0034302D01*
X0061805Y0033703D02*
X0046340Y0033703D01*
X0046092Y0033105D02*
X0061808Y0033105D01*
X0062406Y0032506D02*
X0045804Y0032506D01*
X0045206Y0031908D02*
X0063005Y0031908D01*
X0063603Y0031309D02*
X0044210Y0031309D01*
X0043995Y0028317D02*
X0091616Y0028317D01*
X0090416Y0027718D02*
X0045194Y0027718D01*
X0045858Y0027120D02*
X0089752Y0027120D01*
X0089327Y0026521D02*
X0046283Y0026521D01*
X0046561Y0025923D02*
X0089049Y0025923D01*
X0088881Y0025324D02*
X0046729Y0025324D01*
X0046796Y0024127D02*
X0088814Y0024127D01*
X0088933Y0023529D02*
X0046677Y0023529D01*
X0046453Y0022930D02*
X0089158Y0022930D01*
X0089502Y0022332D02*
X0046109Y0022332D01*
X0045597Y0021733D02*
X0090014Y0021733D01*
X0090807Y0021135D02*
X0044803Y0021135D01*
X0040605Y0021135D02*
X0040005Y0021135D01*
X0040005Y0021733D02*
X0040605Y0021733D01*
X0040605Y0022332D02*
X0040005Y0022332D01*
X0040005Y0022930D02*
X0040605Y0022930D01*
X0040605Y0023529D02*
X0040005Y0023529D01*
X0040005Y0024127D02*
X0040605Y0024127D01*
X0040605Y0025923D02*
X0040005Y0025923D01*
X0040005Y0026521D02*
X0040605Y0026521D01*
X0040605Y0027120D02*
X0040005Y0027120D01*
X0040005Y0027718D02*
X0040605Y0027718D01*
X0040605Y0028317D02*
X0040005Y0028317D01*
X0033814Y0024127D02*
X0005835Y0024127D01*
X0005834Y0023529D02*
X0033933Y0023529D01*
X0034158Y0022930D02*
X0005833Y0022930D01*
X0005832Y0022332D02*
X0034502Y0022332D01*
X0035014Y0021733D02*
X0005831Y0021733D01*
X0005830Y0021135D02*
X0035807Y0021135D01*
X0035978Y0041484D02*
X0005861Y0041484D01*
X0005862Y0042083D02*
X0035230Y0042083D01*
X0034694Y0042681D02*
X0005863Y0042681D01*
X0005864Y0043280D02*
X0034446Y0043280D01*
X0034205Y0043878D02*
X0005865Y0043878D01*
X0005866Y0044477D02*
X0034205Y0044477D01*
X0034205Y0045075D02*
X0005867Y0045075D01*
X0005868Y0045674D02*
X0034379Y0045674D01*
X0034627Y0046272D02*
X0005869Y0046272D01*
X0005870Y0046871D02*
X0035069Y0046871D01*
X0035667Y0047469D02*
X0005871Y0047469D01*
X0005877Y0051659D02*
X0063254Y0051659D01*
X0062655Y0052257D02*
X0005878Y0052257D01*
X0005879Y0052856D02*
X0062057Y0052856D01*
X0061805Y0053454D02*
X0005880Y0053454D01*
X0005881Y0054053D02*
X0061805Y0054053D01*
X0061805Y0054651D02*
X0005882Y0054651D01*
X0005883Y0055250D02*
X0061805Y0055250D01*
X0061805Y0055848D02*
X0005883Y0055848D01*
X0005884Y0056447D02*
X0062245Y0056447D01*
X0062844Y0057045D02*
X0005885Y0057045D01*
X0005886Y0057644D02*
X0063442Y0057644D01*
X0067168Y0057644D02*
X0078683Y0057644D01*
X0078144Y0058242D02*
X0005887Y0058242D01*
X0005888Y0058841D02*
X0077896Y0058841D01*
X0077805Y0059439D02*
X0005889Y0059439D01*
X0005890Y0060038D02*
X0077805Y0060038D01*
X0078006Y0060636D02*
X0005891Y0060636D01*
X0005892Y0061235D02*
X0078447Y0061235D01*
X0079203Y0061833D02*
X0005893Y0061833D01*
X0005945Y0095949D02*
X0155606Y0095949D01*
X0155540Y0098941D02*
X0065212Y0098941D01*
X0065462Y0099190D02*
X0066055Y0100624D01*
X0066055Y0108175D01*
X0065462Y0109609D01*
X0064365Y0110706D01*
X0062931Y0111300D01*
X0061380Y0111300D01*
X0059946Y0110706D01*
X0058849Y0109609D01*
X0058256Y0108175D01*
X0058256Y0100624D01*
X0058849Y0099190D01*
X0059946Y0098093D01*
X0061380Y0097500D01*
X0062931Y0097500D01*
X0064365Y0098093D01*
X0065462Y0099190D01*
X0065606Y0099540D02*
X0154681Y0099540D01*
X0154083Y0100138D02*
X0065854Y0100138D01*
X0066055Y0100737D02*
X0153786Y0100737D01*
X0153538Y0101335D02*
X0066055Y0101335D01*
X0066055Y0101934D02*
X0153405Y0101934D01*
X0153405Y0102532D02*
X0066055Y0102532D01*
X0066055Y0103131D02*
X0153405Y0103131D01*
X0153621Y0103729D02*
X0066055Y0103729D01*
X0066055Y0104328D02*
X0153869Y0104328D01*
X0154285Y0104926D02*
X0066055Y0104926D01*
X0066055Y0105525D02*
X0154883Y0105525D01*
X0156028Y0106123D02*
X0066055Y0106123D01*
X0066055Y0106722D02*
X0201635Y0106722D01*
X0201253Y0107320D02*
X0066055Y0107320D01*
X0066055Y0107919D02*
X0201005Y0107919D01*
X0200757Y0108517D02*
X0065914Y0108517D01*
X0065666Y0109116D02*
X0200705Y0109116D01*
X0200705Y0109714D02*
X0065356Y0109714D01*
X0064758Y0110313D02*
X0200705Y0110313D01*
X0200887Y0110911D02*
X0063869Y0110911D01*
X0060442Y0110911D02*
X0053869Y0110911D01*
X0054365Y0110706D02*
X0052931Y0111300D01*
X0051380Y0111300D01*
X0049946Y0110706D01*
X0048849Y0109609D01*
X0048256Y0108175D01*
X0048256Y0100624D01*
X0048849Y0099190D01*
X0049946Y0098093D01*
X0051380Y0097500D01*
X0052931Y0097500D01*
X0054365Y0098093D01*
X0055462Y0099190D01*
X0056055Y0100624D01*
X0056055Y0108175D01*
X0055462Y0109609D01*
X0054365Y0110706D01*
X0054758Y0110313D02*
X0059553Y0110313D01*
X0058955Y0109714D02*
X0055356Y0109714D01*
X0055666Y0109116D02*
X0058645Y0109116D01*
X0058397Y0108517D02*
X0055914Y0108517D01*
X0056055Y0107919D02*
X0058256Y0107919D01*
X0058256Y0107320D02*
X0056055Y0107320D01*
X0056055Y0106722D02*
X0058256Y0106722D01*
X0058256Y0106123D02*
X0056055Y0106123D01*
X0056055Y0105525D02*
X0058256Y0105525D01*
X0058256Y0104926D02*
X0056055Y0104926D01*
X0056055Y0104328D02*
X0058256Y0104328D01*
X0058256Y0103729D02*
X0056055Y0103729D01*
X0056055Y0103131D02*
X0058256Y0103131D01*
X0058256Y0102532D02*
X0056055Y0102532D01*
X0056055Y0101934D02*
X0058256Y0101934D01*
X0058256Y0101335D02*
X0056055Y0101335D01*
X0056055Y0100737D02*
X0058256Y0100737D01*
X0058457Y0100138D02*
X0055854Y0100138D01*
X0055606Y0099540D02*
X0058705Y0099540D01*
X0059099Y0098941D02*
X0055212Y0098941D01*
X0054614Y0098343D02*
X0059697Y0098343D01*
X0060790Y0097744D02*
X0053521Y0097744D01*
X0050790Y0097744D02*
X0005948Y0097744D01*
X0005947Y0097146D02*
X0201325Y0097146D01*
X0201077Y0097744D02*
X0063521Y0097744D01*
X0064614Y0098343D02*
X0200829Y0098343D01*
X0200705Y0098941D02*
X0165071Y0098941D01*
X0165929Y0099540D02*
X0200705Y0099540D01*
X0200705Y0100138D02*
X0166528Y0100138D01*
X0166825Y0100737D02*
X0200815Y0100737D01*
X0201063Y0101335D02*
X0167072Y0101335D01*
X0167205Y0101934D02*
X0201311Y0101934D01*
X0201775Y0102532D02*
X0167205Y0102532D01*
X0167205Y0103131D02*
X0202373Y0103131D01*
X0203357Y0103729D02*
X0166989Y0103729D01*
X0165727Y0105525D02*
X0203020Y0105525D01*
X0202234Y0106123D02*
X0164583Y0106123D01*
X0165004Y0095949D02*
X0202408Y0095949D01*
X0201810Y0096547D02*
X0005946Y0096547D01*
X0005948Y0098343D02*
X0049697Y0098343D01*
X0049099Y0098941D02*
X0005949Y0098941D01*
X0005950Y0099540D02*
X0048705Y0099540D01*
X0048457Y0100138D02*
X0005951Y0100138D01*
X0005952Y0100737D02*
X0048256Y0100737D01*
X0048256Y0101335D02*
X0005953Y0101335D01*
X0005954Y0101934D02*
X0048256Y0101934D01*
X0048256Y0102532D02*
X0005955Y0102532D01*
X0005956Y0103131D02*
X0048256Y0103131D01*
X0048256Y0103729D02*
X0005957Y0103729D01*
X0005958Y0104328D02*
X0048256Y0104328D01*
X0048256Y0104926D02*
X0005959Y0104926D01*
X0005959Y0105525D02*
X0048256Y0105525D01*
X0048256Y0106123D02*
X0005960Y0106123D01*
X0005961Y0106722D02*
X0048256Y0106722D01*
X0048256Y0107320D02*
X0005962Y0107320D01*
X0005963Y0107919D02*
X0048256Y0107919D01*
X0048397Y0108517D02*
X0005964Y0108517D01*
X0005965Y0109116D02*
X0048645Y0109116D01*
X0048955Y0109714D02*
X0005966Y0109714D01*
X0005967Y0110313D02*
X0049553Y0110313D01*
X0050442Y0110911D02*
X0005968Y0110911D01*
X0005969Y0111510D02*
X0201135Y0111510D01*
X0201383Y0112108D02*
X0005969Y0112108D01*
X0005970Y0112707D02*
X0201950Y0112707D01*
X0202548Y0113305D02*
X0005971Y0113305D01*
X0005972Y0113904D02*
X0203779Y0113904D01*
X0203441Y0095350D02*
X0165902Y0095350D01*
X0166500Y0094752D02*
X0233457Y0094752D01*
X0204380Y0094153D02*
X0166813Y0094153D01*
X0167061Y0093555D02*
X0202935Y0093555D01*
X0202199Y0092956D02*
X0167205Y0092956D01*
X0167205Y0092357D02*
X0201600Y0092357D01*
X0201238Y0091759D02*
X0167205Y0091759D01*
X0167000Y0091160D02*
X0200990Y0091160D01*
X0200742Y0090562D02*
X0166752Y0090562D01*
X0166353Y0089963D02*
X0200705Y0089963D01*
X0200705Y0089365D02*
X0165754Y0089365D01*
X0164649Y0088766D02*
X0200705Y0088766D01*
X0168442Y0057644D02*
X0122168Y0057644D01*
X0122767Y0057045D02*
X0167844Y0057045D01*
X0167245Y0056447D02*
X0123365Y0056447D01*
X0123805Y0055848D02*
X0166805Y0055848D01*
X0166805Y0055250D02*
X0123805Y0055250D01*
X0123805Y0054651D02*
X0166805Y0054651D01*
X0166805Y0054053D02*
X0123805Y0054053D01*
X0123805Y0053454D02*
X0166805Y0053454D01*
X0167057Y0052856D02*
X0123554Y0052856D01*
X0122955Y0052257D02*
X0167655Y0052257D01*
X0168254Y0051659D02*
X0122356Y0051659D01*
X0121758Y0051060D02*
X0168852Y0051060D01*
X0171758Y0051060D02*
X0200949Y0051060D01*
X0201197Y0051659D02*
X0172356Y0051659D01*
X0172955Y0052257D02*
X0201500Y0052257D01*
X0202098Y0052856D02*
X0173554Y0052856D01*
X0173805Y0053454D02*
X0202697Y0053454D01*
X0204138Y0054053D02*
X0173805Y0054053D01*
X0171919Y0037893D02*
X0201015Y0037893D01*
X0201263Y0037294D02*
X0172517Y0037294D01*
X0173116Y0036696D02*
X0201661Y0036696D01*
X0202259Y0036097D02*
X0173715Y0036097D01*
X0173805Y0035499D02*
X0203082Y0035499D01*
X0203295Y0033703D02*
X0173805Y0033703D01*
X0173803Y0033105D02*
X0202348Y0033105D01*
X0201749Y0032506D02*
X0173204Y0032506D01*
X0172606Y0031908D02*
X0201300Y0031908D01*
X0201052Y0031309D02*
X0172007Y0031309D01*
X0217927Y0045674D02*
X0233382Y0045674D01*
X0233383Y0046272D02*
X0218526Y0046272D01*
X0219124Y0046871D02*
X0233384Y0046871D01*
X0233385Y0047469D02*
X0219419Y0047469D01*
X0219667Y0048068D02*
X0233386Y0048068D01*
X0233387Y0048666D02*
X0219905Y0048666D01*
X0219905Y0049265D02*
X0233387Y0049265D01*
X0233388Y0049863D02*
X0219905Y0049863D01*
X0219905Y0050462D02*
X0233389Y0050462D01*
X0233390Y0051060D02*
X0219662Y0051060D01*
X0219414Y0051659D02*
X0233391Y0051659D01*
X0233392Y0052257D02*
X0219110Y0052257D01*
X0218512Y0052856D02*
X0233393Y0052856D01*
X0233394Y0053454D02*
X0217913Y0053454D01*
X0217833Y0145625D02*
X0233535Y0145625D01*
X0233536Y0146223D02*
X0218477Y0146223D01*
X0219075Y0146822D02*
X0233536Y0146822D01*
X0233537Y0147421D02*
X0219399Y0147421D01*
X0219647Y0148019D02*
X0233538Y0148019D01*
X0233539Y0148618D02*
X0219895Y0148618D01*
X0219905Y0149216D02*
X0233540Y0149216D01*
X0233541Y0149815D02*
X0219905Y0149815D01*
X0219905Y0150413D02*
X0233542Y0150413D01*
X0233543Y0151012D02*
X0219682Y0151012D01*
X0219434Y0151610D02*
X0233544Y0151610D01*
X0233545Y0152209D02*
X0219159Y0152209D01*
X0218560Y0152807D02*
X0233546Y0152807D01*
X0233546Y0153406D02*
X0217962Y0153406D01*
X0216589Y0154004D02*
X0233547Y0154004D01*
X0233563Y0164179D02*
X0112641Y0164179D01*
X0112042Y0164777D02*
X0233564Y0164777D01*
X0202457Y0195900D02*
X0167150Y0195900D01*
X0167748Y0196498D02*
X0201858Y0196498D01*
X0201345Y0197097D02*
X0168265Y0197097D01*
X0168610Y0197695D02*
X0201097Y0197695D01*
X0200849Y0198294D02*
X0168956Y0198294D01*
X0169301Y0198892D02*
X0200705Y0198892D01*
X0200705Y0199491D02*
X0169577Y0199491D01*
X0169737Y0200090D02*
X0200705Y0200090D01*
X0200795Y0200688D02*
X0169897Y0200688D01*
X0170058Y0201287D02*
X0201042Y0201287D01*
X0201290Y0201885D02*
X0170218Y0201885D01*
X0170221Y0202484D02*
X0201726Y0202484D01*
X0202325Y0203082D02*
X0170221Y0203082D01*
X0170221Y0203681D02*
X0203240Y0203681D01*
X0203137Y0205476D02*
X0169992Y0205476D01*
X0169831Y0206075D02*
X0202282Y0206075D01*
X0201684Y0206673D02*
X0169671Y0206673D01*
X0169504Y0207272D02*
X0201273Y0207272D01*
X0201025Y0207870D02*
X0169159Y0207870D01*
X0168813Y0208469D02*
X0200777Y0208469D01*
X0200705Y0209067D02*
X0168468Y0209067D01*
X0168100Y0209666D02*
X0200705Y0209666D01*
X0200705Y0210264D02*
X0167501Y0210264D01*
X0166903Y0210863D02*
X0200867Y0210863D01*
X0201115Y0211461D02*
X0166304Y0211461D01*
X0165324Y0212060D02*
X0201363Y0212060D01*
X0201901Y0212658D02*
X0164288Y0212658D01*
X0162540Y0213257D02*
X0202499Y0213257D01*
X0203662Y0213855D02*
X0152048Y0213855D01*
X0151982Y0213266D02*
X0152117Y0214465D01*
X0152117Y0214769D01*
X0141668Y0214769D01*
X0141668Y0204320D01*
X0141972Y0204320D01*
X0143171Y0204455D01*
X0144348Y0204724D01*
X0145488Y0205123D01*
X0146576Y0205646D01*
X0147598Y0206289D01*
X0148542Y0207041D01*
X0149395Y0207895D01*
X0150148Y0208839D01*
X0150791Y0209861D01*
X0151314Y0210949D01*
X0151713Y0212089D01*
X0151982Y0213266D01*
X0151980Y0213257D02*
X0157204Y0213257D01*
X0155456Y0212658D02*
X0151843Y0212658D01*
X0151703Y0212060D02*
X0154420Y0212060D01*
X0153440Y0211461D02*
X0151494Y0211461D01*
X0151273Y0210863D02*
X0152841Y0210863D01*
X0152243Y0210264D02*
X0150985Y0210264D01*
X0150668Y0209666D02*
X0151644Y0209666D01*
X0151276Y0209067D02*
X0150292Y0209067D01*
X0149853Y0208469D02*
X0150931Y0208469D01*
X0150585Y0207870D02*
X0149370Y0207870D01*
X0148772Y0207272D02*
X0150240Y0207272D01*
X0150073Y0206673D02*
X0148080Y0206673D01*
X0147257Y0206075D02*
X0149913Y0206075D01*
X0149753Y0205476D02*
X0146222Y0205476D01*
X0144788Y0204878D02*
X0149592Y0204878D01*
X0149523Y0204279D02*
X0006110Y0204279D01*
X0006109Y0203681D02*
X0149523Y0203681D01*
X0149523Y0203082D02*
X0006109Y0203082D01*
X0006108Y0202484D02*
X0149523Y0202484D01*
X0149526Y0201885D02*
X0006107Y0201885D01*
X0006106Y0201287D02*
X0149686Y0201287D01*
X0149847Y0200688D02*
X0006105Y0200688D01*
X0006104Y0200090D02*
X0150007Y0200090D01*
X0150167Y0199491D02*
X0006103Y0199491D01*
X0006102Y0198892D02*
X0150443Y0198892D01*
X0150788Y0198294D02*
X0006101Y0198294D01*
X0006100Y0197695D02*
X0151134Y0197695D01*
X0151479Y0197097D02*
X0006099Y0197097D01*
X0006099Y0196498D02*
X0151996Y0196498D01*
X0152595Y0195900D02*
X0006098Y0195900D01*
X0006097Y0195301D02*
X0153193Y0195301D01*
X0153992Y0194703D02*
X0006096Y0194703D01*
X0006095Y0194104D02*
X0155029Y0194104D01*
X0156282Y0193506D02*
X0006094Y0193506D01*
X0006111Y0204878D02*
X0137948Y0204878D01*
X0138388Y0204724D02*
X0139565Y0204455D01*
X0140764Y0204320D01*
X0141068Y0204320D01*
X0141068Y0214769D01*
X0130619Y0214769D01*
X0130619Y0214465D01*
X0130754Y0213266D01*
X0131023Y0212089D01*
X0131422Y0210949D01*
X0131946Y0209861D01*
X0132588Y0208839D01*
X0133341Y0207895D01*
X0134194Y0207041D01*
X0135138Y0206289D01*
X0136161Y0205646D01*
X0137248Y0205123D01*
X0138388Y0204724D01*
X0136514Y0205476D02*
X0006112Y0205476D01*
X0006113Y0206075D02*
X0135479Y0206075D01*
X0134656Y0206673D02*
X0006114Y0206673D01*
X0006115Y0207272D02*
X0133964Y0207272D01*
X0133366Y0207870D02*
X0006116Y0207870D01*
X0006117Y0208469D02*
X0132883Y0208469D01*
X0132445Y0209067D02*
X0006118Y0209067D01*
X0006119Y0209666D02*
X0132069Y0209666D01*
X0131752Y0210264D02*
X0006120Y0210264D01*
X0006120Y0210863D02*
X0131463Y0210863D01*
X0131243Y0211461D02*
X0006121Y0211461D01*
X0006122Y0212060D02*
X0131033Y0212060D01*
X0130893Y0212658D02*
X0006123Y0212658D01*
X0006124Y0213257D02*
X0130756Y0213257D01*
X0130688Y0213855D02*
X0006125Y0213855D01*
X0006126Y0214454D02*
X0130621Y0214454D01*
X0130619Y0215369D02*
X0141068Y0215369D01*
X0141068Y0225818D01*
X0140764Y0225818D01*
X0139565Y0225683D01*
X0138388Y0225414D01*
X0137248Y0225015D01*
X0136161Y0224491D01*
X0135138Y0223849D01*
X0134194Y0223096D01*
X0133341Y0222243D01*
X0132588Y0221299D01*
X0131946Y0220276D01*
X0131422Y0219189D01*
X0131023Y0218049D01*
X0130754Y0216872D01*
X0130619Y0215673D01*
X0130619Y0215369D01*
X0130619Y0215651D02*
X0006128Y0215651D01*
X0006129Y0216249D02*
X0130684Y0216249D01*
X0130752Y0216848D02*
X0006130Y0216848D01*
X0006131Y0217446D02*
X0130886Y0217446D01*
X0131022Y0218045D02*
X0006131Y0218045D01*
X0006132Y0218643D02*
X0131231Y0218643D01*
X0131447Y0219242D02*
X0006133Y0219242D01*
X0006134Y0219840D02*
X0131736Y0219840D01*
X0132048Y0220439D02*
X0006135Y0220439D01*
X0006136Y0221037D02*
X0132424Y0221037D01*
X0132857Y0221636D02*
X0006137Y0221636D01*
X0006138Y0222234D02*
X0133334Y0222234D01*
X0133931Y0222833D02*
X0006139Y0222833D01*
X0006140Y0223431D02*
X0134615Y0223431D01*
X0135426Y0224030D02*
X0006141Y0224030D01*
X0006142Y0224628D02*
X0136445Y0224628D01*
X0137854Y0225227D02*
X0006142Y0225227D01*
X0006143Y0225826D02*
X0149130Y0225826D01*
X0149123Y0225883D02*
X0149258Y0224683D01*
X0149527Y0223506D01*
X0149926Y0222366D01*
X0150450Y0221279D01*
X0151092Y0220256D01*
X0151845Y0219312D01*
X0152698Y0218459D01*
X0153642Y0217706D01*
X0154664Y0217064D01*
X0155752Y0216540D01*
X0156892Y0216141D01*
X0158069Y0215873D01*
X0159268Y0215737D01*
X0159572Y0215737D01*
X0159572Y0226186D01*
X0149123Y0226186D01*
X0149123Y0225883D01*
X0149197Y0225227D02*
X0144883Y0225227D01*
X0144348Y0225414D02*
X0143171Y0225683D01*
X0141972Y0225818D01*
X0141668Y0225818D01*
X0141668Y0215369D01*
X0141068Y0215369D01*
X0141068Y0214769D01*
X0141668Y0214769D01*
X0141668Y0215369D01*
X0152117Y0215369D01*
X0152117Y0215673D01*
X0151982Y0216872D01*
X0151713Y0218049D01*
X0151314Y0219189D01*
X0150791Y0220276D01*
X0150148Y0221299D01*
X0149395Y0222243D01*
X0148542Y0223096D01*
X0147598Y0223849D01*
X0146576Y0224491D01*
X0145488Y0225015D01*
X0144348Y0225414D01*
X0146291Y0224628D02*
X0149271Y0224628D01*
X0149407Y0224030D02*
X0147310Y0224030D01*
X0148122Y0223431D02*
X0149553Y0223431D01*
X0149763Y0222833D02*
X0148805Y0222833D01*
X0149402Y0222234D02*
X0149989Y0222234D01*
X0149879Y0221636D02*
X0150278Y0221636D01*
X0150312Y0221037D02*
X0150601Y0221037D01*
X0150688Y0220439D02*
X0150977Y0220439D01*
X0151001Y0219840D02*
X0151424Y0219840D01*
X0151289Y0219242D02*
X0151915Y0219242D01*
X0151505Y0218643D02*
X0152514Y0218643D01*
X0153217Y0218045D02*
X0151714Y0218045D01*
X0151851Y0217446D02*
X0154056Y0217446D01*
X0155113Y0216848D02*
X0151984Y0216848D01*
X0152052Y0216249D02*
X0156583Y0216249D01*
X0159572Y0216249D02*
X0160172Y0216249D01*
X0160172Y0216848D02*
X0159572Y0216848D01*
X0159572Y0217446D02*
X0160172Y0217446D01*
X0160172Y0218045D02*
X0159572Y0218045D01*
X0159572Y0218643D02*
X0160172Y0218643D01*
X0160172Y0219242D02*
X0159572Y0219242D01*
X0159572Y0219840D02*
X0160172Y0219840D01*
X0160172Y0220439D02*
X0159572Y0220439D01*
X0159572Y0221037D02*
X0160172Y0221037D01*
X0160172Y0221636D02*
X0159572Y0221636D01*
X0159572Y0222234D02*
X0160172Y0222234D01*
X0160172Y0222833D02*
X0159572Y0222833D01*
X0159572Y0223431D02*
X0160172Y0223431D01*
X0160172Y0224030D02*
X0159572Y0224030D01*
X0159572Y0224628D02*
X0160172Y0224628D01*
X0160172Y0225227D02*
X0159572Y0225227D01*
X0159572Y0225826D02*
X0160172Y0225826D01*
X0159572Y0226424D02*
X0006144Y0226424D01*
X0006145Y0227023D02*
X0149123Y0227023D01*
X0149183Y0227621D02*
X0006146Y0227621D01*
X0006147Y0228220D02*
X0149251Y0228220D01*
X0149379Y0228818D02*
X0006148Y0228818D01*
X0006127Y0215052D02*
X0141068Y0215052D01*
X0141068Y0214454D02*
X0141668Y0214454D01*
X0141668Y0215052D02*
X0204160Y0215052D01*
X0202715Y0215651D02*
X0152117Y0215651D01*
X0152116Y0214454D02*
X0233640Y0214454D01*
X0207280Y0230015D02*
X0170025Y0230015D01*
X0169815Y0230614D02*
X0205835Y0230614D01*
X0204401Y0231212D02*
X0169526Y0231212D01*
X0169221Y0231811D02*
X0203803Y0231811D01*
X0203204Y0232409D02*
X0168845Y0232409D01*
X0168420Y0233008D02*
X0202606Y0233008D01*
X0202007Y0233606D02*
X0167942Y0233606D01*
X0167355Y0234205D02*
X0201566Y0234205D01*
X0201318Y0234803D02*
X0166683Y0234803D01*
X0165886Y0235402D02*
X0201070Y0235402D01*
X0200822Y0236000D02*
X0164890Y0236000D01*
X0163517Y0236599D02*
X0200574Y0236599D01*
X0204083Y0224030D02*
X0170337Y0224030D01*
X0170191Y0223431D02*
X0202674Y0223431D01*
X0202076Y0222833D02*
X0169982Y0222833D01*
X0169755Y0222234D02*
X0201477Y0222234D01*
X0201187Y0221636D02*
X0169467Y0221636D01*
X0169143Y0221037D02*
X0200939Y0221037D01*
X0200705Y0220439D02*
X0168767Y0220439D01*
X0168320Y0219840D02*
X0200705Y0219840D01*
X0200705Y0219242D02*
X0167829Y0219242D01*
X0167230Y0218643D02*
X0200705Y0218643D01*
X0200952Y0218045D02*
X0166527Y0218045D01*
X0165688Y0217446D02*
X0201200Y0217446D01*
X0201509Y0216848D02*
X0164631Y0216848D01*
X0163161Y0216249D02*
X0202107Y0216249D01*
X0233694Y0249766D02*
X0006180Y0249766D01*
X0006181Y0250364D02*
X0233695Y0250364D01*
X0233695Y0250963D02*
X0006182Y0250963D01*
X0006183Y0251561D02*
X0233696Y0251561D01*
X0233697Y0252160D02*
X0006184Y0252160D01*
X0006185Y0252759D02*
X0233698Y0252759D01*
X0233699Y0253357D02*
X0006185Y0253357D01*
X0006186Y0253956D02*
X0233700Y0253956D01*
X0233701Y0254554D02*
X0226255Y0254554D01*
X0141668Y0225227D02*
X0141068Y0225227D01*
X0141068Y0224628D02*
X0141668Y0224628D01*
X0141668Y0224030D02*
X0141068Y0224030D01*
X0141068Y0223431D02*
X0141668Y0223431D01*
X0141668Y0222833D02*
X0141068Y0222833D01*
X0141068Y0222234D02*
X0141668Y0222234D01*
X0141668Y0221636D02*
X0141068Y0221636D01*
X0141068Y0221037D02*
X0141668Y0221037D01*
X0141668Y0220439D02*
X0141068Y0220439D01*
X0141068Y0219840D02*
X0141668Y0219840D01*
X0141668Y0219242D02*
X0141068Y0219242D01*
X0141068Y0218643D02*
X0141668Y0218643D01*
X0141668Y0218045D02*
X0141068Y0218045D01*
X0141068Y0217446D02*
X0141668Y0217446D01*
X0141668Y0216848D02*
X0141068Y0216848D01*
X0141068Y0216249D02*
X0141668Y0216249D01*
X0141668Y0215651D02*
X0141068Y0215651D01*
X0141068Y0213855D02*
X0141668Y0213855D01*
X0141668Y0213257D02*
X0141068Y0213257D01*
X0141068Y0212658D02*
X0141668Y0212658D01*
X0141668Y0212060D02*
X0141068Y0212060D01*
X0141068Y0211461D02*
X0141668Y0211461D01*
X0141668Y0210863D02*
X0141068Y0210863D01*
X0141068Y0210264D02*
X0141668Y0210264D01*
X0141668Y0209666D02*
X0141068Y0209666D01*
X0141068Y0209067D02*
X0141668Y0209067D01*
X0141668Y0208469D02*
X0141068Y0208469D01*
X0141068Y0207870D02*
X0141668Y0207870D01*
X0141668Y0207272D02*
X0141068Y0207272D01*
X0141068Y0206673D02*
X0141668Y0206673D01*
X0141668Y0206075D02*
X0141068Y0206075D01*
X0141068Y0205476D02*
X0141668Y0205476D01*
X0141668Y0204878D02*
X0141068Y0204878D01*
X0108568Y0164777D02*
X0092042Y0164777D01*
X0092641Y0164179D02*
X0107969Y0164179D01*
X0107371Y0163580D02*
X0093239Y0163580D01*
X0093805Y0162982D02*
X0106805Y0162982D01*
X0106805Y0162383D02*
X0093805Y0162383D01*
X0093805Y0161785D02*
X0106805Y0161785D01*
X0106805Y0161186D02*
X0093805Y0161186D01*
X0093805Y0160588D02*
X0106805Y0160588D01*
X0106931Y0159989D02*
X0093679Y0159989D01*
X0093081Y0159391D02*
X0107530Y0159391D01*
X0108128Y0158792D02*
X0092482Y0158792D01*
X0091884Y0158194D02*
X0108727Y0158194D01*
X0105244Y0094752D02*
X0101744Y0094752D01*
X0102801Y0094153D02*
X0104187Y0094153D01*
X0103589Y0093555D02*
X0103399Y0093555D01*
X0099456Y0094752D02*
X0095563Y0094752D01*
X0096620Y0094153D02*
X0098400Y0094153D01*
X0097801Y0093555D02*
X0097218Y0093555D01*
X0093275Y0094752D02*
X0089500Y0094752D01*
X0090557Y0094153D02*
X0092219Y0094153D01*
X0091620Y0093555D02*
X0091155Y0093555D01*
X0091196Y0084577D02*
X0091579Y0084577D01*
X0092178Y0083978D02*
X0090598Y0083978D01*
X0089599Y0083380D02*
X0093177Y0083380D01*
X0095662Y0083380D02*
X0099358Y0083380D01*
X0098359Y0083978D02*
X0096661Y0083978D01*
X0097259Y0084577D02*
X0097761Y0084577D01*
X0101843Y0083380D02*
X0105145Y0083380D01*
X0104146Y0083978D02*
X0102842Y0083978D01*
X0103440Y0084577D02*
X0103548Y0084577D01*
X0098601Y0038057D02*
X0092009Y0038057D01*
X0090723Y0037524D01*
X0089738Y0036540D01*
X0089205Y0035253D01*
X0089205Y0033861D01*
X0089738Y0032574D01*
X0090723Y0031590D01*
X0092009Y0031057D01*
X0098601Y0031057D01*
X0099888Y0031590D01*
X0100872Y0032574D01*
X0101405Y0033861D01*
X0101405Y0035253D01*
X0100872Y0036540D01*
X0099888Y0037524D01*
X0098601Y0038057D01*
X0098998Y0037893D02*
X0118691Y0037893D01*
X0118093Y0037294D02*
X0100117Y0037294D01*
X0100716Y0036696D02*
X0117494Y0036696D01*
X0116896Y0036097D02*
X0101055Y0036097D01*
X0101303Y0035499D02*
X0116805Y0035499D01*
X0116805Y0034900D02*
X0101405Y0034900D01*
X0101405Y0034302D02*
X0116805Y0034302D01*
X0116805Y0033703D02*
X0101340Y0033703D01*
X0101092Y0033105D02*
X0116808Y0033105D01*
X0117406Y0032506D02*
X0100804Y0032506D01*
X0100206Y0031908D02*
X0118005Y0031908D01*
X0118603Y0031309D02*
X0099210Y0031309D01*
X0095605Y0028317D02*
X0095005Y0028317D01*
X0095005Y0027718D02*
X0095605Y0027718D01*
X0095605Y0027120D02*
X0095005Y0027120D01*
X0095005Y0026521D02*
X0095605Y0026521D01*
X0095605Y0025923D02*
X0095005Y0025923D01*
X0095005Y0024127D02*
X0095605Y0024127D01*
X0095605Y0023529D02*
X0095005Y0023529D01*
X0095005Y0022930D02*
X0095605Y0022930D01*
X0095605Y0022332D02*
X0095005Y0022332D01*
X0095005Y0021733D02*
X0095605Y0021733D01*
X0095605Y0021135D02*
X0095005Y0021135D01*
X0091400Y0031309D02*
X0067007Y0031309D01*
X0067606Y0031908D02*
X0090405Y0031908D01*
X0089806Y0032506D02*
X0068204Y0032506D01*
X0068803Y0033105D02*
X0089518Y0033105D01*
X0089270Y0033703D02*
X0068805Y0033703D01*
X0068805Y0034302D02*
X0089205Y0034302D01*
X0089205Y0034900D02*
X0068805Y0034900D01*
X0068805Y0035499D02*
X0089307Y0035499D01*
X0089555Y0036097D02*
X0068715Y0036097D01*
X0068116Y0036696D02*
X0089894Y0036696D01*
X0090493Y0037294D02*
X0067517Y0037294D01*
X0066919Y0037893D02*
X0091613Y0037893D01*
D17*
X0080305Y0059557D03*
X0120305Y0069557D03*
D18*
X0115305Y0069557D01*
X0105305Y0059557D01*
X0080305Y0059557D01*
M02*
